<?xml version="1.0" standalone="no"?>
<!DOCTYPE svg PUBLIC "-//W3C//DTD SVG 20010904//EN"
 "http://www.w3.org/TR/2001/REC-SVG-20010904/DTD/svg10.dtd">
<svg version="1.0" xmlns="http://www.w3.org/2000/svg"
 width="700.000000pt" height="700.000000pt" viewBox="0 0 700.000000 700.000000"
 preserveAspectRatio="xMidYMid meet">
<metadata>
Created by potrace 1.11, written by Peter Selinger 2001-2013
</metadata>
<g transform="translate(0.000000,700.000000) scale(0.100000,-0.100000)"
fill="#000000" stroke="none">
<path d="M3675 5340 c-274 -32 -495 -140 -684 -335 -261 -270 -409 -643 -473
-1190 -17 -144 -16 -664 0 -810 50 -434 149 -742 319 -1000 173 -259 416 -425
713 -485 122 -25 363 -30 496 -10 165 24 331 79 432 143 l42 27 0 305 c0 168
-4 305 -8 305 -4 0 -37 -16 -73 -34 -82 -44 -222 -97 -319 -122 -57 -14 -110
-19 -220 -19 -128 1 -152 3 -203 24 -266 106 -415 392 -468 896 -18 174 -15
609 5 774 87 713 388 1039 826 894 66 -22 206 -94 297 -154 l33 -21 9 24 c5
12 57 140 115 282 80 196 103 262 94 268 -97 66 -252 142 -358 178 -157 53
-407 79 -575 60z"/>
</g>
</svg>
