<svg width="30" height="30" viewBox="0 0 30 30" fill="none" xmlns="http://www.w3.org/2000/svg">
<rect width="30" height="30" fill="white"/>
<path d="M30 30H22.5H15H7.5H0V22.5003V15.0005V7.49975V0H7.5H15H22.5H30V7.49975V14.9995V22.4992V30ZM0.252287 29.7477H7.62614H15H22.3739H29.7477V22.3741V15.0005V7.62589V0.252279H22.3739H15H7.62614H0.252287V7.62589V14.9995V22.3731V29.7477Z" fill="#4D4D4D"/>
<path fill-rule="evenodd" clip-rule="evenodd" d="M10.8016 5.37048C10.3895 5.19867 10.0268 5.11665 9.75818 5.16247C9.00013 5.29181 8.60365 5.98754 8.39487 6.8855C8.21932 7.64051 8.18997 8.48288 8.16789 9.11664C8.16396 9.22916 8.16027 9.3351 8.15603 9.43281C8.10855 11.2422 8.34683 13.4858 8.63395 15.3042L8.6342 15.3058C8.87278 16.9282 9.30257 18.887 9.73285 20.5132C9.79368 20.6957 9.8532 20.8787 9.91266 21.0615C10.2424 22.0752 10.5703 23.0832 11.1087 23.9806L11.1113 23.9849C11.3395 24.3956 11.6135 24.7178 11.9394 25.0447C11.967 25.0634 11.9929 25.082 12.0161 25.0987C12.0213 25.1024 12.0263 25.106 12.0311 25.1094C12.0625 25.1319 12.0882 25.1497 12.1126 25.1643C12.1467 25.1848 12.1736 25.196 12.1993 25.2005L25.6883 18.9276L21.1871 14.4264C19.9417 13.1811 18.0126 11.3477 16.3936 9.8247C15.5844 9.06341 14.853 8.38004 14.324 7.88698C14.0595 7.64046 13.8456 7.44152 13.6978 7.30423L13.4711 7.09385L13.4668 7.09023L13.4455 7.07251C13.4266 7.05692 13.3986 7.03394 13.3624 7.0047C13.29 6.94622 13.1851 6.86271 13.0551 6.76308C12.795 6.56367 12.4358 6.3004 12.0386 6.0441C11.6407 5.78734 11.2084 5.54006 10.8016 5.37048ZM13.5704 6.98129L13.6724 6.87132L13.902 7.08444C14.0499 7.22183 14.2639 7.42088 14.5286 7.66752C15.0578 8.1608 15.7895 8.84451 16.5992 9.60619C18.218 11.1291 20.1503 12.9653 21.3992 14.2143L26.0041 18.8192L26.2038 19.0188L12.2604 25.5029H12.2273C12.1184 25.5029 12.0315 25.4655 11.9582 25.4216C11.9226 25.4002 11.8883 25.3761 11.8568 25.3535C11.8512 25.3496 11.8457 25.3456 11.8402 25.3417C11.8136 25.3226 11.788 25.3043 11.7603 25.2858L11.748 25.2776L11.7375 25.2671C11.3969 24.9265 11.0991 24.5802 10.8502 24.1328C10.2934 23.2041 9.95392 22.1595 9.62499 21.1474C9.56564 20.9648 9.50663 20.7832 9.44675 20.6036L9.44376 20.5946C9.0111 18.9601 8.5784 16.988 8.3375 15.3502C8.04912 13.5237 7.80786 11.2594 7.85617 9.42368L7.85624 9.42111C7.86032 9.32709 7.86391 9.2237 7.86774 9.11276C7.88955 8.4809 7.91982 7.60398 8.10266 6.81756C8.31568 5.90136 8.75485 5.02932 9.70773 4.86675C10.0635 4.80605 10.4926 4.91661 10.9171 5.09358C11.3469 5.27278 11.7959 5.53048 12.2012 5.79202C12.6073 6.05402 12.9733 6.32237 13.2376 6.525C13.3699 6.62639 13.4769 6.7115 13.551 6.77139C13.588 6.80133 13.6169 6.82498 13.6365 6.84121L13.659 6.85986L13.6648 6.86475L13.6664 6.86604L13.5704 6.98129ZM13.5704 6.98129L13.6664 6.86604L13.6724 6.87132L13.5704 6.98129Z" fill="#4D4D4D"/>
<path fill-rule="evenodd" clip-rule="evenodd" d="M19.2813 15.2398C20.632 14.9273 21.9001 15.5172 23.0352 16.3914C23.8256 17 24.5285 17.7266 25.1392 18.3578C25.4098 18.6376 25.6624 18.8986 25.8963 19.1223L26.1036 18.9054C25.8844 18.6959 25.6406 18.4439 25.3754 18.1699C24.7587 17.5327 24.0262 16.7759 23.2183 16.1537C22.0582 15.2603 20.6948 14.6034 19.2103 14.9482L19.2103 14.9481L19.2043 14.9498C17.0146 15.5555 15.431 16.8018 14.3962 17.8938C13.8786 18.44 13.4973 18.9487 13.245 19.3214C13.1189 19.5078 13.0249 19.6603 12.9622 19.7668C12.9308 19.82 12.9073 19.8617 12.8914 19.8904L12.8734 19.9234L12.8687 19.9323L12.8674 19.9347L12.8671 19.9354L12.8669 19.9356C12.8669 19.9357 12.8669 19.9358 13 20.005L13.133 20.0742L13.133 20.0742L13.1332 20.0739L13.1341 20.0723L13.1379 20.0651L13.154 20.0355C13.1686 20.0091 13.1908 19.9698 13.2207 19.919C13.2805 19.8175 13.3711 19.6703 13.4935 19.4895C13.7383 19.1279 14.1095 18.6325 14.614 18.1002C15.6228 17.0356 17.1603 15.8272 19.2813 15.2398Z" fill="#4D4D4D"/>
</svg>
