<svg width="30" height="30" viewBox="0 0 30 30" fill="none" xmlns="http://www.w3.org/2000/svg">
<rect width="30" height="30" fill="white"/>
<path d="M30 30H22.5H15H7.5H0V22.5003V15.0005V7.49975V0H7.5H15H22.5H30V7.49975V14.9995V22.4992V30ZM0.252287 29.7477H7.62614H15H22.3739H29.7477V22.3741V15.0005V7.62589V0.252279H22.3739H15H7.62614H0.252287V7.62589V14.9995V22.3731V29.7477Z" fill="#4D4D4D"/>
<mask id="path-3-inside-1" fill="white">
<path d="M14.9922 4.00006C14.8598 4.00213 14.7337 4.05663 14.6415 4.15159C14.5493 4.24655 14.4985 4.37422 14.5003 4.50657V5.50594C14.4994 5.57215 14.5116 5.63789 14.5363 5.69934C14.561 5.76078 14.5977 5.81671 14.6441 5.86386C14.6906 5.91102 14.746 5.94846 14.8071 5.97402C14.8682 5.99957 14.9338 6.01274 15 6.01274C15.0662 6.01274 15.1318 5.99957 15.1929 5.97402C15.254 5.94846 15.3094 5.91102 15.3558 5.86386C15.4023 5.81671 15.439 5.76078 15.4637 5.69934C15.4884 5.63789 15.5006 5.57215 15.4997 5.50594V4.50657C15.5006 4.43972 15.4881 4.37337 15.4629 4.31144C15.4377 4.2495 15.4003 4.19326 15.353 4.14603C15.3057 4.0988 15.2494 4.06154 15.1874 4.03647C15.1254 4.0114 15.059 3.99902 14.9922 4.00006ZM7.0003 6.50042C6.90089 6.50045 6.80376 6.53012 6.72131 6.58564C6.63885 6.64116 6.57483 6.72001 6.53743 6.81211C6.50003 6.9042 6.49094 7.00536 6.51133 7.10265C6.53171 7.19994 6.58065 7.28894 6.65189 7.35827L7.65124 8.35764C7.69728 8.40559 7.75243 8.44388 7.81346 8.47026C7.87448 8.49663 7.94016 8.51057 8.00663 8.51124C8.07311 8.51192 8.13906 8.49932 8.20061 8.4742C8.26215 8.44907 8.31807 8.41191 8.36508 8.3649C8.41209 8.31789 8.44925 8.26197 8.47437 8.20042C8.4995 8.13888 8.5121 8.07293 8.51142 8.00645C8.51074 7.93997 8.49681 7.8743 8.47043 7.81327C8.44406 7.75225 8.40577 7.6971 8.35782 7.65105L7.35846 6.65169C7.3119 6.60382 7.25621 6.56578 7.19469 6.53979C7.13318 6.51381 7.06707 6.50042 7.0003 6.50042ZM22.9851 6.50042C22.8552 6.50429 22.732 6.55854 22.6415 6.65169L21.6422 7.65105C21.5942 7.6971 21.5559 7.75225 21.5296 7.81327C21.5032 7.8743 21.4893 7.93997 21.4886 8.00645C21.4879 8.07293 21.5005 8.13888 21.5256 8.20042C21.5508 8.26197 21.5879 8.31789 21.6349 8.3649C21.6819 8.41191 21.7378 8.44907 21.7994 8.4742C21.8609 8.49932 21.9269 8.51192 21.9934 8.51124C22.0598 8.51057 22.1255 8.49663 22.1865 8.47026C22.2476 8.44388 22.3027 8.40559 22.3488 8.35764L23.3481 7.35827C23.4203 7.28809 23.4696 7.19772 23.4896 7.09903C23.5096 7.00033 23.4993 6.8979 23.46 6.80517C23.4208 6.71244 23.3544 6.63372 23.2697 6.57934C23.1849 6.52496 23.0857 6.49745 22.9851 6.50042ZM13.501 7.50466C12.7603 7.50466 12.1941 7.96943 11.8507 8.57234C11.7335 8.55017 11.6267 8.50403 11.5023 8.50403C10.4043 8.50403 9.50356 9.40479 9.50356 10.5028C9.50356 10.5387 9.51906 10.5662 9.52112 10.6013C8.65985 10.8234 8.00453 11.5741 8.00453 12.5015C8.00453 12.8768 8.13758 13.2082 8.31878 13.5077C7.85759 13.8732 7.50485 14.3684 7.50485 14.9999C7.50485 15.6314 7.85759 16.1266 8.31878 16.4921C8.13758 16.7915 8.00453 17.123 8.00453 17.4983C8.00453 18.4257 8.65986 19.1764 9.52112 19.3985C9.51906 19.4336 9.50356 19.4611 9.50356 19.497C9.50356 20.595 10.4043 21.4957 11.5023 21.4957C11.6267 21.4957 11.7335 21.4496 11.8507 21.4274C12.1941 22.0303 12.7603 22.4951 13.501 22.4951C14.0975 22.4951 14.6309 22.2248 14.999 21.8061C15.3644 22.2241 15.8936 22.4951 16.4893 22.4951C17.2299 22.4951 17.7962 22.0303 18.1396 21.4274C18.2567 21.4496 18.3635 21.4957 18.488 21.4957C19.5859 21.4957 20.4867 20.595 20.4867 19.497C20.4867 19.461 20.4702 19.4336 20.4681 19.3985C21.3296 19.1765 21.9857 18.4258 21.9857 17.4983C21.9857 17.123 21.8527 16.7915 21.6715 16.4921C22.1327 16.1266 22.4854 15.6314 22.4854 14.9999C22.4854 14.3684 22.1327 13.8732 21.6715 13.5077C21.8527 13.2082 21.9857 12.8768 21.9857 12.5015C21.9857 11.5743 21.3301 10.8236 20.4691 10.6013C20.4712 10.5662 20.4867 10.5387 20.4867 10.5028C20.4867 9.40479 19.5859 8.50403 18.488 8.50403C18.3635 8.50403 18.2567 8.55017 18.1396 8.57234C17.7962 7.96943 17.2299 7.50466 16.4893 7.50466C15.8936 7.50466 15.3644 7.77587 14.999 8.19368C14.6309 7.7751 14.0976 7.50466 13.501 7.50466ZM13.501 8.50403C14.0344 8.50403 14.4645 8.91509 14.5003 9.43507V13.0012C13.4024 13.0012 12.5016 13.9019 12.5016 14.9999C12.5007 15.0661 12.5129 15.1318 12.5376 15.1933C12.5623 15.2547 12.599 15.3107 12.6454 15.3578C12.6919 15.405 12.7473 15.4424 12.8084 15.468C12.8695 15.4935 12.9351 15.5067 13.0013 15.5067C13.0675 15.5067 13.1331 15.4935 13.1942 15.468C13.2552 15.4424 13.3107 15.405 13.3571 15.3578C13.4036 15.3107 13.4403 15.2547 13.465 15.1933C13.4897 15.1318 13.5019 15.0661 13.501 14.9999C13.501 14.4419 13.9424 14.0005 14.5003 14.0005V17.4983V20.5637C14.4645 21.0844 14.0344 21.4957 13.501 21.4957C13.036 21.4957 12.6579 21.1825 12.5426 20.756C12.5242 20.6878 12.4916 20.6243 12.4469 20.5697C12.4022 20.515 12.3465 20.4705 12.2833 20.4389C12.2202 20.4074 12.151 20.3896 12.0805 20.3867C12.01 20.3838 11.9396 20.3959 11.8741 20.4222C11.7548 20.4701 11.6313 20.4964 11.5023 20.4964C10.9443 20.4964 10.5029 20.055 10.5029 19.497C10.5029 19.4799 10.5067 19.4625 10.5078 19.4453C10.6638 19.4158 10.8391 19.3701 11.025 19.2765C11.5083 19.0331 12.0019 18.4302 12.0019 17.4983C12.0029 17.4314 11.9903 17.3651 11.9652 17.3032C11.94 17.2412 11.9026 17.185 11.8553 17.1377C11.808 17.0905 11.7516 17.0533 11.6897 17.0282C11.6277 17.0031 11.5613 16.9907 11.4945 16.9918C11.3621 16.9939 11.236 17.0483 11.1438 17.1433C11.0515 17.2383 11.0008 17.3659 11.0026 17.4983C11.0026 18.1314 10.7939 18.2733 10.5751 18.3835C10.3564 18.4936 10.1252 18.4889 10.1252 18.4889C10.1236 18.4889 10.122 18.4889 10.1203 18.4889C10.1054 18.4882 10.0904 18.4882 10.0755 18.4889C10.0725 18.4888 10.0696 18.4888 10.0667 18.4889C10.0363 18.4908 10.0595 18.4905 10.0452 18.4918C10.0344 18.4931 10.0237 18.4947 10.013 18.4967C10.0168 18.4968 9.99644 18.4977 10.0032 18.4977C9.44526 18.4977 9.00388 18.0563 9.00388 17.4983C9.00388 17.2075 9.12658 16.9541 9.32691 16.7683C9.38959 16.7102 9.43632 16.637 9.46264 16.5557C9.48896 16.4744 9.49399 16.3877 9.47725 16.3039C9.46051 16.2201 9.42256 16.142 9.36702 16.077C9.31148 16.0121 9.24022 15.9624 9.16003 15.9329C8.77708 15.7919 8.5042 15.4338 8.5042 14.9999C8.5042 14.566 8.77708 14.2079 9.16003 14.0669C9.24022 14.0373 9.31148 13.9877 9.36702 13.9228C9.42256 13.8578 9.46051 13.7797 9.47725 13.6959C9.49399 13.6121 9.48896 13.5254 9.46264 13.4441C9.43632 13.3628 9.38959 13.2896 9.32691 13.2315C9.12658 13.0457 9.00388 12.7922 9.00388 12.5015C9.00388 12.0151 9.33974 11.6186 9.79536 11.5246C9.85286 11.6227 9.92044 11.7271 10.013 11.8339C10.2962 12.1608 10.8048 12.5015 11.5023 12.5015C11.5685 12.5024 11.6342 12.4902 11.6957 12.4655C11.7571 12.4408 11.813 12.4041 11.8602 12.3577C11.9073 12.3112 11.9448 12.2558 11.9703 12.1947C11.9959 12.1336 12.0091 12.068 12.0091 12.0018C12.0091 11.9356 11.9959 11.87 11.9703 11.8089C11.9448 11.7478 11.9073 11.6924 11.8602 11.6459C11.813 11.5995 11.7571 11.5628 11.6957 11.5381C11.6342 11.5134 11.5685 11.5012 11.5023 11.5021C11.1064 11.5021 10.9139 11.3481 10.7684 11.1801C10.6228 11.012 10.5751 10.8619 10.5751 10.8619C10.5727 10.855 10.5701 10.8482 10.5673 10.8414C10.5664 10.8388 10.5663 10.8362 10.5654 10.8336C10.5249 10.7201 10.5029 10.6116 10.5029 10.5028C10.5029 9.94478 10.9443 9.50339 11.5023 9.50339C11.6313 9.50339 11.7548 9.52963 11.8741 9.57756C11.9396 9.60384 12.01 9.61593 12.0805 9.61305C12.151 9.61017 12.2202 9.59238 12.2833 9.56084C12.3465 9.52931 12.4022 9.48475 12.4469 9.4301C12.4916 9.37545 12.5242 9.31195 12.5426 9.24379C12.6579 8.81727 13.036 8.50403 13.501 8.50403ZM16.4893 8.50403C16.9543 8.50403 17.3323 8.81727 17.4476 9.24379C17.466 9.31195 17.4986 9.37545 17.5433 9.4301C17.588 9.48475 17.6438 9.52931 17.7069 9.56084C17.7701 9.59238 17.8392 9.61017 17.9097 9.61305C17.9803 9.61593 18.0506 9.60384 18.1161 9.57756C18.2355 9.52963 18.3589 9.50339 18.488 9.50339C19.0459 9.50339 19.4873 9.94478 19.4873 10.5028C19.4873 10.6097 19.465 10.7164 19.4258 10.8277C19.4242 10.8324 19.4236 10.8367 19.4219 10.8414C19.4163 10.8571 19.4114 10.8731 19.4073 10.8892C19.4055 10.896 19.4039 10.9029 19.4024 10.9097C19.4024 10.9097 19.3754 11.0391 19.2512 11.1927C19.1269 11.3464 18.9522 11.5021 18.4977 11.5021C18.4315 11.5012 18.3658 11.5134 18.3043 11.5381C18.2429 11.5628 18.187 11.5995 18.1398 11.6459C18.0927 11.6924 18.0552 11.7478 18.0297 11.8089C18.0041 11.87 17.9909 11.9356 17.9909 12.0018C17.9909 12.068 18.0041 12.1336 18.0297 12.1947C18.0552 12.2558 18.0927 12.3112 18.1398 12.3577C18.187 12.4041 18.2429 12.4408 18.3043 12.4655C18.3658 12.4902 18.4315 12.5024 18.4977 12.5015C19.23 12.5015 19.7519 12.1626 20.028 11.8212C20.1081 11.7223 20.1677 11.6239 20.2173 11.5304C20.6612 11.6329 20.9864 12.0233 20.9864 12.5015C20.9864 12.7922 20.8637 13.0457 20.6633 13.2315C20.6006 13.2896 20.5539 13.3628 20.5276 13.4441C20.5013 13.5254 20.4962 13.6121 20.513 13.6959C20.5297 13.7797 20.5677 13.8578 20.6232 13.9228C20.6788 13.9877 20.75 14.0373 20.8302 14.0669C21.2132 14.2079 21.486 14.566 21.486 14.9999C21.486 15.3429 21.3124 15.6334 21.0517 15.8119C20.8967 15.7148 20.6933 15.618 20.4301 15.5601C20.3057 15.5327 20.1689 15.5196 20.0251 15.524C19.5935 15.5372 19.0949 15.7097 18.65 16.1398C18.6019 16.1852 18.5633 16.2397 18.5365 16.3001C18.5096 16.3605 18.4951 16.4257 18.4936 16.4918C18.4921 16.5579 18.5037 16.6237 18.5278 16.6852C18.5519 16.7468 18.588 16.803 18.634 16.8505C18.68 16.898 18.7349 16.9359 18.7957 16.9621C18.8564 16.9882 18.9217 17.002 18.9878 17.0027C19.054 17.0034 19.1196 16.991 19.1808 16.9662C19.2421 16.9414 19.2979 16.9046 19.3448 16.8581C19.7369 16.4791 19.9878 16.4859 20.2154 16.536C20.443 16.5861 20.657 16.7629 20.6555 16.7615C20.6581 16.7638 20.6607 16.766 20.6633 16.7683C20.6637 16.7686 20.664 16.7689 20.6643 16.7693C20.864 16.9549 20.9864 17.208 20.9864 17.4983C20.9864 18.0563 20.545 18.4977 19.987 18.4977C20.0314 18.4977 20.0125 18.4945 19.9226 18.4889C19.8398 18.4837 19.757 18.4993 19.6818 18.5341C19.6065 18.5689 19.5411 18.6219 19.4914 18.6884C19.4417 18.7548 19.4094 18.8325 19.3972 18.9146C19.3851 18.9966 19.3936 19.0804 19.4219 19.1584C19.4645 19.2757 19.4873 19.3863 19.4873 19.497C19.4873 20.055 19.0459 20.4964 18.488 20.4964C18.3589 20.4964 18.2355 20.4701 18.1161 20.4222C18.0506 20.3959 17.9803 20.3838 17.9097 20.3867C17.8392 20.3896 17.7701 20.4074 17.7069 20.4389C17.6438 20.4705 17.588 20.515 17.5433 20.5697C17.4986 20.6243 17.466 20.6878 17.4476 20.756C17.3323 21.1825 16.9543 21.4957 16.4893 21.4957C15.9558 21.4957 15.5358 21.0886 15.4997 20.5637V17.4983C15.4997 16.9403 15.9411 16.4989 16.499 16.4989C16.5652 16.4999 16.631 16.4876 16.6924 16.4629C16.7539 16.4383 16.8098 16.4016 16.8569 16.3551C16.9041 16.3086 16.9415 16.2532 16.9671 16.1921C16.9927 16.131 17.0058 16.0655 17.0058 15.9993C17.0058 15.933 16.9927 15.8675 16.9671 15.8064C16.9415 15.7453 16.9041 15.6899 16.8569 15.6434C16.8098 15.5969 16.7539 15.5602 16.6924 15.5356C16.631 15.5109 16.5652 15.4986 16.499 15.4996C16.1339 15.4996 15.7953 15.6063 15.4997 15.7797V9.43507C15.5357 8.91089 15.9558 8.50403 16.4893 8.50403ZM4.50679 14.5002C4.44058 14.4993 4.37484 14.5115 4.3134 14.5362C4.25195 14.5609 4.19603 14.5975 4.14887 14.644C4.10172 14.6905 4.06428 14.7459 4.03872 14.807C4.01316 14.8681 4 14.9337 4 14.9999C4 15.0661 4.01316 15.1317 4.03872 15.1928C4.06428 15.2538 4.10172 15.3092 4.14887 15.3557C4.19603 15.4022 4.25195 15.4389 4.3134 15.4636C4.37484 15.4883 4.44058 15.5005 4.50679 15.4996H6.00582C6.07204 15.5005 6.13777 15.4883 6.19922 15.4636C6.26066 15.4389 6.31659 15.4022 6.36374 15.3557C6.4109 15.3092 6.44834 15.2538 6.4739 15.1928C6.49945 15.1317 6.51262 15.0661 6.51262 14.9999C6.51262 14.9337 6.49945 14.8681 6.4739 14.807C6.44834 14.7459 6.4109 14.6905 6.36374 14.644C6.31659 14.5975 6.26066 14.5609 6.19922 14.5362C6.13777 14.5115 6.07204 14.4993 6.00582 14.5002H4.50679ZM23.9942 14.5002C23.928 14.4993 23.8622 14.5115 23.8008 14.5362C23.7393 14.5609 23.6834 14.5975 23.6363 14.644C23.5891 14.6905 23.5517 14.7459 23.5261 14.807C23.5005 14.8681 23.4874 14.9337 23.4874 14.9999C23.4874 15.0661 23.5005 15.1317 23.5261 15.1928C23.5517 15.2538 23.5891 15.3092 23.6363 15.3557C23.6834 15.4022 23.7393 15.4389 23.8008 15.4636C23.8622 15.4883 23.928 15.5005 23.9942 15.4996H25.4932C25.5594 15.5005 25.6252 15.4883 25.6866 15.4636C25.748 15.4389 25.804 15.4022 25.8511 15.3557C25.8983 15.3092 25.9357 15.2538 25.9613 15.1928C25.9868 15.1317 26 15.0661 26 14.9999C26 14.9337 25.9868 14.8681 25.9613 14.807C25.9357 14.7459 25.8983 14.6905 25.8511 14.644C25.804 14.5975 25.748 14.5609 25.6866 14.5362C25.6252 14.5115 25.5594 14.4993 25.4932 14.5002H23.9942ZM7.99477 21.4909C7.86495 21.4947 7.74174 21.549 7.65124 21.6421L6.65189 22.6415C6.60393 22.6875 6.56565 22.7427 6.53927 22.8037C6.5129 22.8647 6.49896 22.9304 6.49829 22.9969C6.49761 23.0634 6.5102 23.1293 6.53533 23.1909C6.56046 23.2524 6.59762 23.3083 6.64463 23.3553C6.69163 23.4024 6.74755 23.4395 6.8091 23.4646C6.87065 23.4898 6.93659 23.5024 7.00307 23.5017C7.06955 23.501 7.13522 23.4871 7.19625 23.4607C7.25727 23.4343 7.31242 23.396 7.35846 23.3481L8.35782 22.3487C8.43002 22.2785 8.47934 22.1882 8.4993 22.0895C8.51927 21.9908 8.50896 21.8883 8.46971 21.7956C8.43046 21.7029 8.36412 21.6242 8.27937 21.5698C8.19462 21.5154 8.09542 21.4879 7.99477 21.4909ZM21.9906 21.4909C21.8912 21.4909 21.7941 21.5206 21.7116 21.5761C21.6291 21.6316 21.5651 21.7105 21.5277 21.8026C21.4903 21.8947 21.4812 21.9958 21.5016 22.0931C21.522 22.1904 21.5709 22.2794 21.6422 22.3487L22.6415 23.3481C22.6876 23.396 22.7427 23.4343 22.8038 23.4607C22.8648 23.4871 22.9305 23.501 22.9969 23.5017C23.0634 23.5024 23.1294 23.4898 23.1909 23.4646C23.2525 23.4395 23.3084 23.4024 23.3554 23.3553C23.4024 23.3083 23.4395 23.2524 23.4647 23.1909C23.4898 23.1293 23.5024 23.0634 23.5017 22.9969C23.501 22.9304 23.4871 22.8647 23.4607 22.8037C23.4344 22.7427 23.3961 22.6875 23.3481 22.6415L22.3488 21.6421C22.3022 21.5943 22.2465 21.5562 22.185 21.5302C22.1235 21.5043 22.0574 21.4909 21.9906 21.4909ZM14.9922 23.9873C14.8598 23.9894 14.7337 24.0439 14.6415 24.1389C14.5493 24.2338 14.4985 24.3615 14.5003 24.4938V25.4932C14.4994 25.5594 14.5116 25.6252 14.5363 25.6866C14.561 25.748 14.5977 25.804 14.6441 25.8511C14.6906 25.8983 14.746 25.9357 14.8071 25.9613C14.8682 25.9868 14.9338 26 15 26C15.0662 26 15.1318 25.9868 15.1929 25.9613C15.254 25.9357 15.3094 25.8983 15.3558 25.8511C15.4023 25.804 15.439 25.748 15.4637 25.6866C15.4884 25.6252 15.5006 25.5594 15.4997 25.4932V24.4938C15.5006 24.427 15.4881 24.3606 15.4629 24.2987C15.4377 24.2368 15.4003 24.1805 15.353 24.1333C15.3057 24.0861 15.2494 24.0488 15.1874 24.0237C15.1254 23.9987 15.059 23.9863 14.9922 23.9873Z"/>
</mask>
<path d="M14.9922 4.00006C14.8598 4.00213 14.7337 4.05663 14.6415 4.15159C14.5493 4.24655 14.4985 4.37422 14.5003 4.50657V5.50594C14.4994 5.57215 14.5116 5.63789 14.5363 5.69934C14.561 5.76078 14.5977 5.81671 14.6441 5.86386C14.6906 5.91102 14.746 5.94846 14.8071 5.97402C14.8682 5.99957 14.9338 6.01274 15 6.01274C15.0662 6.01274 15.1318 5.99957 15.1929 5.97402C15.254 5.94846 15.3094 5.91102 15.3558 5.86386C15.4023 5.81671 15.439 5.76078 15.4637 5.69934C15.4884 5.63789 15.5006 5.57215 15.4997 5.50594V4.50657C15.5006 4.43972 15.4881 4.37337 15.4629 4.31144C15.4377 4.2495 15.4003 4.19326 15.353 4.14603C15.3057 4.0988 15.2494 4.06154 15.1874 4.03647C15.1254 4.0114 15.059 3.99902 14.9922 4.00006ZM7.0003 6.50042C6.90089 6.50045 6.80376 6.53012 6.72131 6.58564C6.63885 6.64116 6.57483 6.72001 6.53743 6.81211C6.50003 6.9042 6.49094 7.00536 6.51133 7.10265C6.53171 7.19994 6.58065 7.28894 6.65189 7.35827L7.65124 8.35764C7.69728 8.40559 7.75243 8.44388 7.81346 8.47026C7.87448 8.49663 7.94016 8.51057 8.00663 8.51124C8.07311 8.51192 8.13906 8.49932 8.20061 8.4742C8.26215 8.44907 8.31807 8.41191 8.36508 8.3649C8.41209 8.31789 8.44925 8.26197 8.47437 8.20042C8.4995 8.13888 8.5121 8.07293 8.51142 8.00645C8.51074 7.93997 8.49681 7.8743 8.47043 7.81327C8.44406 7.75225 8.40577 7.6971 8.35782 7.65105L7.35846 6.65169C7.3119 6.60382 7.25621 6.56578 7.19469 6.53979C7.13318 6.51381 7.06707 6.50042 7.0003 6.50042ZM22.9851 6.50042C22.8552 6.50429 22.732 6.55854 22.6415 6.65169L21.6422 7.65105C21.5942 7.6971 21.5559 7.75225 21.5296 7.81327C21.5032 7.8743 21.4893 7.93997 21.4886 8.00645C21.4879 8.07293 21.5005 8.13888 21.5256 8.20042C21.5508 8.26197 21.5879 8.31789 21.6349 8.3649C21.6819 8.41191 21.7378 8.44907 21.7994 8.4742C21.8609 8.49932 21.9269 8.51192 21.9934 8.51124C22.0598 8.51057 22.1255 8.49663 22.1865 8.47026C22.2476 8.44388 22.3027 8.40559 22.3488 8.35764L23.3481 7.35827C23.4203 7.28809 23.4696 7.19772 23.4896 7.09903C23.5096 7.00033 23.4993 6.8979 23.46 6.80517C23.4208 6.71244 23.3544 6.63372 23.2697 6.57934C23.1849 6.52496 23.0857 6.49745 22.9851 6.50042ZM13.501 7.50466C12.7603 7.50466 12.1941 7.96943 11.8507 8.57234C11.7335 8.55017 11.6267 8.50403 11.5023 8.50403C10.4043 8.50403 9.50356 9.40479 9.50356 10.5028C9.50356 10.5387 9.51906 10.5662 9.52112 10.6013C8.65985 10.8234 8.00453 11.5741 8.00453 12.5015C8.00453 12.8768 8.13758 13.2082 8.31878 13.5077C7.85759 13.8732 7.50485 14.3684 7.50485 14.9999C7.50485 15.6314 7.85759 16.1266 8.31878 16.4921C8.13758 16.7915 8.00453 17.123 8.00453 17.4983C8.00453 18.4257 8.65986 19.1764 9.52112 19.3985C9.51906 19.4336 9.50356 19.4611 9.50356 19.497C9.50356 20.595 10.4043 21.4957 11.5023 21.4957C11.6267 21.4957 11.7335 21.4496 11.8507 21.4274C12.1941 22.0303 12.7603 22.4951 13.501 22.4951C14.0975 22.4951 14.6309 22.2248 14.999 21.8061C15.3644 22.2241 15.8936 22.4951 16.4893 22.4951C17.2299 22.4951 17.7962 22.0303 18.1396 21.4274C18.2567 21.4496 18.3635 21.4957 18.488 21.4957C19.5859 21.4957 20.4867 20.595 20.4867 19.497C20.4867 19.461 20.4702 19.4336 20.4681 19.3985C21.3296 19.1765 21.9857 18.4258 21.9857 17.4983C21.9857 17.123 21.8527 16.7915 21.6715 16.4921C22.1327 16.1266 22.4854 15.6314 22.4854 14.9999C22.4854 14.3684 22.1327 13.8732 21.6715 13.5077C21.8527 13.2082 21.9857 12.8768 21.9857 12.5015C21.9857 11.5743 21.3301 10.8236 20.4691 10.6013C20.4712 10.5662 20.4867 10.5387 20.4867 10.5028C20.4867 9.40479 19.5859 8.50403 18.488 8.50403C18.3635 8.50403 18.2567 8.55017 18.1396 8.57234C17.7962 7.96943 17.2299 7.50466 16.4893 7.50466C15.8936 7.50466 15.3644 7.77587 14.999 8.19368C14.6309 7.7751 14.0976 7.50466 13.501 7.50466ZM13.501 8.50403C14.0344 8.50403 14.4645 8.91509 14.5003 9.43507V13.0012C13.4024 13.0012 12.5016 13.9019 12.5016 14.9999C12.5007 15.0661 12.5129 15.1318 12.5376 15.1933C12.5623 15.2547 12.599 15.3107 12.6454 15.3578C12.6919 15.405 12.7473 15.4424 12.8084 15.468C12.8695 15.4935 12.9351 15.5067 13.0013 15.5067C13.0675 15.5067 13.1331 15.4935 13.1942 15.468C13.2552 15.4424 13.3107 15.405 13.3571 15.3578C13.4036 15.3107 13.4403 15.2547 13.465 15.1933C13.4897 15.1318 13.5019 15.0661 13.501 14.9999C13.501 14.4419 13.9424 14.0005 14.5003 14.0005V17.4983V20.5637C14.4645 21.0844 14.0344 21.4957 13.501 21.4957C13.036 21.4957 12.6579 21.1825 12.5426 20.756C12.5242 20.6878 12.4916 20.6243 12.4469 20.5697C12.4022 20.515 12.3465 20.4705 12.2833 20.4389C12.2202 20.4074 12.151 20.3896 12.0805 20.3867C12.01 20.3838 11.9396 20.3959 11.8741 20.4222C11.7548 20.4701 11.6313 20.4964 11.5023 20.4964C10.9443 20.4964 10.5029 20.055 10.5029 19.497C10.5029 19.4799 10.5067 19.4625 10.5078 19.4453C10.6638 19.4158 10.8391 19.3701 11.025 19.2765C11.5083 19.0331 12.0019 18.4302 12.0019 17.4983C12.0029 17.4314 11.9903 17.3651 11.9652 17.3032C11.94 17.2412 11.9026 17.185 11.8553 17.1377C11.808 17.0905 11.7516 17.0533 11.6897 17.0282C11.6277 17.0031 11.5613 16.9907 11.4945 16.9918C11.3621 16.9939 11.236 17.0483 11.1438 17.1433C11.0515 17.2383 11.0008 17.3659 11.0026 17.4983C11.0026 18.1314 10.7939 18.2733 10.5751 18.3835C10.3564 18.4936 10.1252 18.4889 10.1252 18.4889C10.1236 18.4889 10.122 18.4889 10.1203 18.4889C10.1054 18.4882 10.0904 18.4882 10.0755 18.4889C10.0725 18.4888 10.0696 18.4888 10.0667 18.4889C10.0363 18.4908 10.0595 18.4905 10.0452 18.4918C10.0344 18.4931 10.0237 18.4947 10.013 18.4967C10.0168 18.4968 9.99644 18.4977 10.0032 18.4977C9.44526 18.4977 9.00388 18.0563 9.00388 17.4983C9.00388 17.2075 9.12658 16.9541 9.32691 16.7683C9.38959 16.7102 9.43632 16.637 9.46264 16.5557C9.48896 16.4744 9.49399 16.3877 9.47725 16.3039C9.46051 16.2201 9.42256 16.142 9.36702 16.077C9.31148 16.0121 9.24022 15.9624 9.16003 15.9329C8.77708 15.7919 8.5042 15.4338 8.5042 14.9999C8.5042 14.566 8.77708 14.2079 9.16003 14.0669C9.24022 14.0373 9.31148 13.9877 9.36702 13.9228C9.42256 13.8578 9.46051 13.7797 9.47725 13.6959C9.49399 13.6121 9.48896 13.5254 9.46264 13.4441C9.43632 13.3628 9.38959 13.2896 9.32691 13.2315C9.12658 13.0457 9.00388 12.7922 9.00388 12.5015C9.00388 12.0151 9.33974 11.6186 9.79536 11.5246C9.85286 11.6227 9.92044 11.7271 10.013 11.8339C10.2962 12.1608 10.8048 12.5015 11.5023 12.5015C11.5685 12.5024 11.6342 12.4902 11.6957 12.4655C11.7571 12.4408 11.813 12.4041 11.8602 12.3577C11.9073 12.3112 11.9448 12.2558 11.9703 12.1947C11.9959 12.1336 12.0091 12.068 12.0091 12.0018C12.0091 11.9356 11.9959 11.87 11.9703 11.8089C11.9448 11.7478 11.9073 11.6924 11.8602 11.6459C11.813 11.5995 11.7571 11.5628 11.6957 11.5381C11.6342 11.5134 11.5685 11.5012 11.5023 11.5021C11.1064 11.5021 10.9139 11.3481 10.7684 11.1801C10.6228 11.012 10.5751 10.8619 10.5751 10.8619C10.5727 10.855 10.5701 10.8482 10.5673 10.8414C10.5664 10.8388 10.5663 10.8362 10.5654 10.8336C10.5249 10.7201 10.5029 10.6116 10.5029 10.5028C10.5029 9.94478 10.9443 9.50339 11.5023 9.50339C11.6313 9.50339 11.7548 9.52963 11.8741 9.57756C11.9396 9.60384 12.01 9.61593 12.0805 9.61305C12.151 9.61017 12.2202 9.59238 12.2833 9.56084C12.3465 9.52931 12.4022 9.48475 12.4469 9.4301C12.4916 9.37545 12.5242 9.31195 12.5426 9.24379C12.6579 8.81727 13.036 8.50403 13.501 8.50403ZM16.4893 8.50403C16.9543 8.50403 17.3323 8.81727 17.4476 9.24379C17.466 9.31195 17.4986 9.37545 17.5433 9.4301C17.588 9.48475 17.6438 9.52931 17.7069 9.56084C17.7701 9.59238 17.8392 9.61017 17.9097 9.61305C17.9803 9.61593 18.0506 9.60384 18.1161 9.57756C18.2355 9.52963 18.3589 9.50339 18.488 9.50339C19.0459 9.50339 19.4873 9.94478 19.4873 10.5028C19.4873 10.6097 19.465 10.7164 19.4258 10.8277C19.4242 10.8324 19.4236 10.8367 19.4219 10.8414C19.4163 10.8571 19.4114 10.8731 19.4073 10.8892C19.4055 10.896 19.4039 10.9029 19.4024 10.9097C19.4024 10.9097 19.3754 11.0391 19.2512 11.1927C19.1269 11.3464 18.9522 11.5021 18.4977 11.5021C18.4315 11.5012 18.3658 11.5134 18.3043 11.5381C18.2429 11.5628 18.187 11.5995 18.1398 11.6459C18.0927 11.6924 18.0552 11.7478 18.0297 11.8089C18.0041 11.87 17.9909 11.9356 17.9909 12.0018C17.9909 12.068 18.0041 12.1336 18.0297 12.1947C18.0552 12.2558 18.0927 12.3112 18.1398 12.3577C18.187 12.4041 18.2429 12.4408 18.3043 12.4655C18.3658 12.4902 18.4315 12.5024 18.4977 12.5015C19.23 12.5015 19.7519 12.1626 20.028 11.8212C20.1081 11.7223 20.1677 11.6239 20.2173 11.5304C20.6612 11.6329 20.9864 12.0233 20.9864 12.5015C20.9864 12.7922 20.8637 13.0457 20.6633 13.2315C20.6006 13.2896 20.5539 13.3628 20.5276 13.4441C20.5013 13.5254 20.4962 13.6121 20.513 13.6959C20.5297 13.7797 20.5677 13.8578 20.6232 13.9228C20.6788 13.9877 20.75 14.0373 20.8302 14.0669C21.2132 14.2079 21.486 14.566 21.486 14.9999C21.486 15.3429 21.3124 15.6334 21.0517 15.8119C20.8967 15.7148 20.6933 15.618 20.4301 15.5601C20.3057 15.5327 20.1689 15.5196 20.0251 15.524C19.5935 15.5372 19.0949 15.7097 18.65 16.1398C18.6019 16.1852 18.5633 16.2397 18.5365 16.3001C18.5096 16.3605 18.4951 16.4257 18.4936 16.4918C18.4921 16.5579 18.5037 16.6237 18.5278 16.6852C18.5519 16.7468 18.588 16.803 18.634 16.8505C18.68 16.898 18.7349 16.9359 18.7957 16.9621C18.8564 16.9882 18.9217 17.002 18.9878 17.0027C19.054 17.0034 19.1196 16.991 19.1808 16.9662C19.2421 16.9414 19.2979 16.9046 19.3448 16.8581C19.7369 16.4791 19.9878 16.4859 20.2154 16.536C20.443 16.5861 20.657 16.7629 20.6555 16.7615C20.6581 16.7638 20.6607 16.766 20.6633 16.7683C20.6637 16.7686 20.664 16.7689 20.6643 16.7693C20.864 16.9549 20.9864 17.208 20.9864 17.4983C20.9864 18.0563 20.545 18.4977 19.987 18.4977C20.0314 18.4977 20.0125 18.4945 19.9226 18.4889C19.8398 18.4837 19.757 18.4993 19.6818 18.5341C19.6065 18.5689 19.5411 18.6219 19.4914 18.6884C19.4417 18.7548 19.4094 18.8325 19.3972 18.9146C19.3851 18.9966 19.3936 19.0804 19.4219 19.1584C19.4645 19.2757 19.4873 19.3863 19.4873 19.497C19.4873 20.055 19.0459 20.4964 18.488 20.4964C18.3589 20.4964 18.2355 20.4701 18.1161 20.4222C18.0506 20.3959 17.9803 20.3838 17.9097 20.3867C17.8392 20.3896 17.7701 20.4074 17.7069 20.4389C17.6438 20.4705 17.588 20.515 17.5433 20.5697C17.4986 20.6243 17.466 20.6878 17.4476 20.756C17.3323 21.1825 16.9543 21.4957 16.4893 21.4957C15.9558 21.4957 15.5358 21.0886 15.4997 20.5637V17.4983C15.4997 16.9403 15.9411 16.4989 16.499 16.4989C16.5652 16.4999 16.631 16.4876 16.6924 16.4629C16.7539 16.4383 16.8098 16.4016 16.8569 16.3551C16.9041 16.3086 16.9415 16.2532 16.9671 16.1921C16.9927 16.131 17.0058 16.0655 17.0058 15.9993C17.0058 15.933 16.9927 15.8675 16.9671 15.8064C16.9415 15.7453 16.9041 15.6899 16.8569 15.6434C16.8098 15.5969 16.7539 15.5602 16.6924 15.5356C16.631 15.5109 16.5652 15.4986 16.499 15.4996C16.1339 15.4996 15.7953 15.6063 15.4997 15.7797V9.43507C15.5357 8.91089 15.9558 8.50403 16.4893 8.50403ZM4.50679 14.5002C4.44058 14.4993 4.37484 14.5115 4.3134 14.5362C4.25195 14.5609 4.19603 14.5975 4.14887 14.644C4.10172 14.6905 4.06428 14.7459 4.03872 14.807C4.01316 14.8681 4 14.9337 4 14.9999C4 15.0661 4.01316 15.1317 4.03872 15.1928C4.06428 15.2538 4.10172 15.3092 4.14887 15.3557C4.19603 15.4022 4.25195 15.4389 4.3134 15.4636C4.37484 15.4883 4.44058 15.5005 4.50679 15.4996H6.00582C6.07204 15.5005 6.13777 15.4883 6.19922 15.4636C6.26066 15.4389 6.31659 15.4022 6.36374 15.3557C6.4109 15.3092 6.44834 15.2538 6.4739 15.1928C6.49945 15.1317 6.51262 15.0661 6.51262 14.9999C6.51262 14.9337 6.49945 14.8681 6.4739 14.807C6.44834 14.7459 6.4109 14.6905 6.36374 14.644C6.31659 14.5975 6.26066 14.5609 6.19922 14.5362C6.13777 14.5115 6.07204 14.4993 6.00582 14.5002H4.50679ZM23.9942 14.5002C23.928 14.4993 23.8622 14.5115 23.8008 14.5362C23.7393 14.5609 23.6834 14.5975 23.6363 14.644C23.5891 14.6905 23.5517 14.7459 23.5261 14.807C23.5005 14.8681 23.4874 14.9337 23.4874 14.9999C23.4874 15.0661 23.5005 15.1317 23.5261 15.1928C23.5517 15.2538 23.5891 15.3092 23.6363 15.3557C23.6834 15.4022 23.7393 15.4389 23.8008 15.4636C23.8622 15.4883 23.928 15.5005 23.9942 15.4996H25.4932C25.5594 15.5005 25.6252 15.4883 25.6866 15.4636C25.748 15.4389 25.804 15.4022 25.8511 15.3557C25.8983 15.3092 25.9357 15.2538 25.9613 15.1928C25.9868 15.1317 26 15.0661 26 14.9999C26 14.9337 25.9868 14.8681 25.9613 14.807C25.9357 14.7459 25.8983 14.6905 25.8511 14.644C25.804 14.5975 25.748 14.5609 25.6866 14.5362C25.6252 14.5115 25.5594 14.4993 25.4932 14.5002H23.9942ZM7.99477 21.4909C7.86495 21.4947 7.74174 21.549 7.65124 21.6421L6.65189 22.6415C6.60393 22.6875 6.56565 22.7427 6.53927 22.8037C6.5129 22.8647 6.49896 22.9304 6.49829 22.9969C6.49761 23.0634 6.5102 23.1293 6.53533 23.1909C6.56046 23.2524 6.59762 23.3083 6.64463 23.3553C6.69163 23.4024 6.74755 23.4395 6.8091 23.4646C6.87065 23.4898 6.93659 23.5024 7.00307 23.5017C7.06955 23.501 7.13522 23.4871 7.19625 23.4607C7.25727 23.4343 7.31242 23.396 7.35846 23.3481L8.35782 22.3487C8.43002 22.2785 8.47934 22.1882 8.4993 22.0895C8.51927 21.9908 8.50896 21.8883 8.46971 21.7956C8.43046 21.7029 8.36412 21.6242 8.27937 21.5698C8.19462 21.5154 8.09542 21.4879 7.99477 21.4909ZM21.9906 21.4909C21.8912 21.4909 21.7941 21.5206 21.7116 21.5761C21.6291 21.6316 21.5651 21.7105 21.5277 21.8026C21.4903 21.8947 21.4812 21.9958 21.5016 22.0931C21.522 22.1904 21.5709 22.2794 21.6422 22.3487L22.6415 23.3481C22.6876 23.396 22.7427 23.4343 22.8038 23.4607C22.8648 23.4871 22.9305 23.501 22.9969 23.5017C23.0634 23.5024 23.1294 23.4898 23.1909 23.4646C23.2525 23.4395 23.3084 23.4024 23.3554 23.3553C23.4024 23.3083 23.4395 23.2524 23.4647 23.1909C23.4898 23.1293 23.5024 23.0634 23.5017 22.9969C23.501 22.9304 23.4871 22.8647 23.4607 22.8037C23.4344 22.7427 23.3961 22.6875 23.3481 22.6415L22.3488 21.6421C22.3022 21.5943 22.2465 21.5562 22.185 21.5302C22.1235 21.5043 22.0574 21.4909 21.9906 21.4909ZM14.9922 23.9873C14.8598 23.9894 14.7337 24.0439 14.6415 24.1389C14.5493 24.2338 14.4985 24.3615 14.5003 24.4938V25.4932C14.4994 25.5594 14.5116 25.6252 14.5363 25.6866C14.561 25.748 14.5977 25.804 14.6441 25.8511C14.6906 25.8983 14.746 25.9357 14.8071 25.9613C14.8682 25.9868 14.9338 26 15 26C15.0662 26 15.1318 25.9868 15.1929 25.9613C15.254 25.9357 15.3094 25.8983 15.3558 25.8511C15.4023 25.804 15.439 25.748 15.4637 25.6866C15.4884 25.6252 15.5006 25.5594 15.4997 25.4932V24.4938C15.5006 24.427 15.4881 24.3606 15.4629 24.2987C15.4377 24.2368 15.4003 24.1805 15.353 24.1333C15.3057 24.0861 15.2494 24.0488 15.1874 24.0237C15.1254 23.9987 15.059 23.9863 14.9922 23.9873Z" fill="#4D4D4D" stroke="white" stroke-width="0.8" mask="url(#path-3-inside-1)"/>
</svg>
