<?xml version="1.0" encoding="utf-8"?>
<!-- Generator: Adobe Illustrator 24.1.0, SVG Export Plug-In . SVG Version: 6.00 Build 0)  -->
<svg version="1.1" id="Layer_1" xmlns="http://www.w3.org/2000/svg" xmlns:xlink="http://www.w3.org/1999/xlink" x="0px" y="0px"
	 viewBox="0 0 138 97" style="enable-background:new 0 0 138 97;" xml:space="preserve">
<style type="text/css">
	.st0{fill:#185D78;}
</style>
<path class="st0" d="M17,80.9142V63.0854h2.9834v14.9254h4.1379l-1.2055,2.9034H17z"/>
<path class="st0" d="M32.9031,80.704l-0.3968-1.7192h-0.1682c-0.2972,0.6097-0.7197,1.0872-1.2675,1.4375
	c-0.5496,0.347-1.1766,0.5221-1.8824,0.5221c-1.2022,0-2.1127-0.4087-2.7291-1.2263c-0.6166-0.8174-0.9257-2.0405-0.9257-3.6669
	v-8.7403h3.2341v7.971c0,0.9775,0.1168,1.7159,0.3485,2.2122c0.2319,0.4963,0.6097,0.7454,1.1302,0.7454
	c0.6886,0,1.192-0.3451,1.508-1.0339c0.3178-0.6886,0.4758-1.848,0.4758-3.4745v-6.4202h3.234V80.704H32.9031z"/>
<path class="st0" d="M40.4535,73.8632l-3.3422-6.5523h3.3181l1.7794,4.0877l1.647-4.0877h3.2943l-3.3663,6.5523l3.5105,6.8407
	H43.952l-1.8994-4.28l-1.7675,4.28h-3.3302L40.4535,73.8632z"/>
<path class="st0" d="M49.8638,64.4787h4.3814c1.642,0,2.9472,0.3161,3.9158,0.9481c0.9688,0.632,1.4531,1.6283,1.4531,2.9902
	c0,0.8535-0.2422,1.5972-0.7265,2.2294c-0.4843,0.632-1.2022,1.07-2.1556,1.3173v0.0977c1.1988,0.1804,2.1436,0.5961,2.8323,1.2436
	c0.6887,0.6492,1.0338,1.5388,1.0338,2.6708c0,0.7884-0.1442,1.4788-0.431,2.0695c-0.2867,0.5909-0.6938,1.0821-1.2177,1.4772
	c-0.5256,0.3932-1.1575,0.6886-1.8961,0.8862c-0.7386,0.1977-1.5681,0.2954-2.4869,0.2954h-4.7026V64.4787L49.8638,64.4787z
	 M53.8019,71.6184c1.6746,0,2.8734-0.2662,3.5948-0.8004c0.723-0.5323,1.0837-1.3413,1.0837-2.4249
	c0-1.0511-0.3847-1.8104-1.1575-2.2775c-0.771-0.4671-1.903-0.7025-3.3972-0.7025h-2.9302v6.2053H53.8019L53.8019,71.6184z
	 M54.2709,79.7679c1.6248,0,2.901-0.3039,3.8285-0.9102c0.9274-0.6079,1.3911-1.5682,1.3911-2.8819
	c0-1.1646-0.4517-2.0301-1.355-2.597c-0.9018-0.5668-2.1898-0.8501-3.8646-0.8501h-3.2752v7.2392H54.2709z"/>
<path class="st0" d="M63.3067,77.7501c0-1.2967,0.6148-2.2912,1.8463-2.9799c1.2314-0.6887,3.1603-1.1816,5.7863-1.4771
	c0.0154-0.4432-0.012-0.8896-0.086-1.3413c-0.0739-0.4517-0.213-0.8537-0.419-1.2074c-0.206-0.3521-0.493-0.6408-0.8622-0.8622
	c-0.3692-0.2215-0.8415-0.3316-1.4152-0.3316c-0.8039,0-1.5356,0.1562-2.1916,0.4671c-0.6561,0.3127-1.1817,0.6168-1.5749,0.912
	l-0.493-0.8123c0.213-0.1478,0.4723-0.3127,0.7746-0.493c0.3039-0.1804,0.6405-0.3453,1.0099-0.493s0.7763-0.2748,1.2194-0.3814
	c0.443-0.1066,0.9018-0.1597,1.3792-0.1597c0.7058,0,1.2966,0.1184,1.7724,0.3573c0.4758,0.2371,0.8622,0.5615,1.1577,0.9722
	c0.2952,0.4104,0.5049,0.8896,0.6268,1.4392c0.1238,0.5513,0.1856,1.1457,0.1856,1.7862v7.5588h-0.9121l-0.122-1.5269h-0.0496
	c-0.6081,0.4758-1.2606,0.8983-1.9581,1.2677c-0.6973,0.371-1.4392,0.5546-2.2274,0.5546c-0.4758,0-0.919-0.0652-1.3294-0.1975
	c-0.4105-0.1305-0.7762-0.3281-1.0958-0.5909c-0.3213-0.261-0.5702-0.5976-0.7506-1.0082
	C63.3961,78.7926,63.3067,78.3082,63.3067,77.7501z M64.4387,77.7003c0,0.8537,0.2473,1.4616,0.7384,1.8223
	c0.493,0.3607,1.0752,0.541,1.7483,0.541c0.6904,0,1.3465-0.1631,1.9701-0.491c0.6233-0.3298,1.3053-0.8056,2.0438-1.4292v-4.0138
	c-1.2144,0.1477-2.2363,0.3297-3.0657,0.5426c-0.8296,0.213-1.4977,0.4673-2.0062,0.7628c-0.5101,0.2953-0.8741,0.632-1.0958,1.0099
	C64.5501,76.8226,64.4387,77.2417,64.4387,77.7003z"/>
<path class="st0" d="M76.2585,63h1.0837v16.2769c0,0.2629,0.0481,0.4552,0.1477,0.5771c0.0979,0.1235,0.2217,0.1855,0.3694,0.1855
	c0.0481,0,0.1014,0,0.1597,0c0.0568,0,0.1512-0.0154,0.2835-0.0498l0.1958,0.8863c-0.1134,0.0327-0.2285,0.0618-0.3436,0.0875
	c-0.1151,0.024-0.2628,0.0361-0.443,0.0361c-0.9687,0-1.453-0.6233-1.453-1.8719V63H76.2585z"/>
<path class="st0" d="M81.4299,77.7501c0-1.2967,0.6149-2.2912,1.8463-2.9799c1.2314-0.6887,3.1603-1.1816,5.7863-1.4771
	c0.0154-0.4432-0.012-0.8896-0.0859-1.3413c-0.0738-0.4517-0.213-0.8537-0.4191-1.2074c-0.206-0.3521-0.493-0.6408-0.8622-0.8622
	c-0.3692-0.2215-0.8415-0.3316-1.415-0.3316c-0.8037,0-1.5356,0.1562-2.1917,0.4671c-0.656,0.3127-1.1816,0.6168-1.575,0.912
	l-0.493-0.8123c0.213-0.1478,0.4724-0.3127,0.7746-0.493c0.3039-0.1804,0.6407-0.3453,1.0099-0.493
	c0.3694-0.1477,0.7763-0.2748,1.2194-0.3814c0.4432-0.1066,0.9018-0.1597,1.3792-0.1597c0.7058,0,1.2967,0.1184,1.7725,0.3573
	c0.4758,0.2371,0.8622,0.5615,1.1576,0.9722c0.2955,0.4104,0.505,0.8896,0.627,1.4392c0.1236,0.5513,0.1856,1.1457,0.1856,1.7862
	v7.5588h-0.9121l-0.122-1.5269h-0.0498c-0.6079,0.4758-1.2606,0.8983-1.9579,1.2677c-0.6974,0.371-1.4394,0.5546-2.2276,0.5546
	c-0.4758,0-0.919-0.0652-1.3293-0.1975c-0.4104-0.1305-0.7763-0.3281-1.0959-0.5909c-0.3211-0.261-0.5702-0.5976-0.7506-1.0082
	C81.5192,78.7926,81.4299,78.3082,81.4299,77.7501z M82.5617,77.7003c0,0.8537,0.2474,1.4616,0.7384,1.8223
	c0.493,0.3607,1.0752,0.541,1.7484,0.541c0.6905,0,1.3465-0.1631,1.97-0.491c0.6235-0.3298,1.3054-0.8056,2.0438-1.4292v-4.0138
	c-1.2142,0.1477-2.2363,0.3297-3.0657,0.5426c-0.8295,0.213-1.4977,0.4673-2.0061,0.7628c-0.51,0.2953-0.8742,0.632-1.0957,1.0099
	C82.6733,76.8226,82.5617,77.2417,82.5617,77.7003z"/>
<path class="st0" d="M94.3818,68.8858h0.9361l0.0979,1.8222h0.0738c0.6081-0.6079,1.2314-1.1129,1.8721-1.5149
	c0.639-0.4019,1.3689-0.6027,2.1898-0.6027c1.2315,0,2.1345,0.3692,2.7085,1.1076c0.575,0.7387,0.862,1.8789,0.862,3.4232v7.5827
	h-1.084v-7.435c0-1.2641-0.208-2.1967-0.627-2.7961c-0.419-0.5977-1.113-0.8983-2.0812-0.8983
	c-0.7059,0-1.3447,0.1855-1.9202,0.5547c-0.5737,0.3692-1.2227,0.9223-1.9443,1.6609v8.9138h-1.0837V68.8858H94.3818z"/>
<path class="st0" d="M106.495,74.8199c0-0.9858,0.148-1.867,0.445-2.6467c0.296-0.7797,0.689-1.4324,1.182-1.958
	c0.491-0.5255,1.061-0.9275,1.711-1.2075c0.647-0.2783,1.332-0.4173,2.055-0.4173c0.821,0,1.507,0.1477,2.056,0.443
	c0.55,0.2954,1.022,0.632,1.415,1.0099l-0.639,0.7626c-0.377-0.3606-0.796-0.6612-1.255-0.8982
	c-0.461-0.2386-0.977-0.3572-1.553-0.3572c-0.606,0-1.17,0.1272-1.686,0.3814c-0.517,0.2541-0.969,0.6148-1.354,1.0837
	c-0.386,0.4673-0.69,1.0219-0.912,1.6608c-0.222,0.6407-0.331,1.3552-0.331,2.1436c0,0.7711,0.102,1.4771,0.307,2.1178
	c0.206,0.6388,0.493,1.1903,0.862,1.6489c0.369,0.4603,0.821,0.8174,1.353,1.0717c0.535,0.2541,1.122,0.3814,1.761,0.3814
	c0.623,0,1.202-0.1306,1.736-0.3934c0.534-0.2628,1.005-0.5839,1.415-0.9618l0.567,0.7403c-0.508,0.4586-1.075,0.8365-1.698,1.132
	c-0.624,0.2954-1.314,0.443-2.068,0.443c-0.773,0-1.483-0.1391-2.13-0.4191c-0.649-0.2782-1.216-0.6801-1.7-1.2057
	c-0.485-0.5256-0.861-1.1696-1.132-1.9339C106.631,76.6783,106.495,75.8039,106.495,74.8199z"/>
<path class="st0" d="M117.132,74.82c0-0.9686,0.144-1.8395,0.431-2.6106c0.287-0.771,0.673-1.4239,1.157-1.9578
	c0.485-0.5326,1.034-0.943,1.651-1.2299c0.615-0.2887,1.25-0.431,1.908-0.431c1.412,0,2.52,0.4758,3.324,1.4272
	c0.803,0.9532,1.207,2.2981,1.207,4.038c0,0.1477,0,0.2954,0,0.4431c0,0.1478-0.017,0.2955-0.05,0.4432h-8.519
	c0.016,0.7384,0.131,1.4255,0.344,2.0558c0.213,0.632,0.513,1.1748,0.9,1.6265c0.384,0.4516,0.848,0.8037,1.391,1.058
	c0.541,0.2541,1.147,0.3813,1.821,0.3813c0.64,0,1.219-0.0944,1.736-0.2834c0.517-0.1873,0.998-0.4465,1.441-0.7746l0.443,0.8365
	c-0.477,0.2799-0.998,0.5427-1.565,0.7885C124.187,80.8764,123.469,81,122.599,81c-0.756,0-1.466-0.1391-2.13-0.419
	c-0.665-0.2783-1.244-0.6854-1.737-1.2178c-0.491-0.5339-0.882-1.1815-1.169-1.9458C117.276,76.6543,117.132,75.7886,117.132,74.82z
	 M125.774,74.1055c0-1.5268-0.31-2.6725-0.934-3.4351c-0.625-0.7625-1.47-1.1456-2.537-1.1456c-0.508,0-0.992,0.1083-1.453,0.3213
	c-0.458,0.213-0.874,0.5169-1.243,0.9103c-0.369,0.395-0.673,0.8741-0.91,1.4409c-0.239,0.5667-0.39,1.2022-0.455,1.9082H125.774z"
	/>
<path d="M66.4277,46.5078c0.8907,0,1.5606,0.2813,2.0098,0.8438c0.4531,0.5586,0.6797,1.3769,0.6797,2.455
	c0,1.0586-0.2383,1.875-0.7149,2.4493c-0.4726,0.5742-1.1386,0.8613-1.998,0.8613c-0.4531,0-0.8613-0.0938-1.2246-0.2813
	c-0.3633-0.1875-0.6504-0.4531-0.8613-0.7968h-0.0528L64.1016,53h-0.3633v-9.1172h0.5801v2.291
	c0,0.3438-0.0079,0.6602-0.0235,0.9492l-0.0176,0.4981h0.0411c0.2421-0.3828,0.5332-0.6641,0.873-0.8438
	C65.5352,46.5977,65.9473,46.5078,66.4277,46.5078z M66.416,47.0352c-0.75,0-1.2871,0.2148-1.6113,0.6445
	c-0.3242,0.4297-0.4863,1.1387-0.4863,2.1269v0.0996c0,0.961,0.1679,1.6504,0.5039,2.0684c0.3398,0.418,0.8672,0.627,1.582,0.627
	c0.6953,0,1.2187-0.2422,1.5703-0.7266c0.3516-0.4883,0.5274-1.1816,0.5274-2.0801C68.502,47.9551,67.8066,47.0352,66.416,47.0352z
	 M69.8203,46.6309h0.5977l1.3476,3.5742c0.4102,1.0976,0.6699,1.8379,0.7793,2.2207h0.0352
	c0.164-0.5039,0.4316-1.2559,0.8027-2.2559l1.3477-3.539h0.5976l-2.8535,7.4003c-0.2305,0.6016-0.4238,1.0079-0.5801,1.2188
	c-0.1562,0.2109-0.3398,0.3691-0.5507,0.4746c-0.2071,0.1055-0.459,0.1582-0.7559,0.1582c-0.2227,0-0.4707-0.041-0.7441-0.123
	v-0.5039c0.2265,0.0625,0.4707,0.0937,0.7324,0.0937c0.1992,0,0.375-0.0469,0.5273-0.1406
	c0.1524-0.0938,0.2891-0.2402,0.4102-0.4395c0.125-0.1953,0.2675-0.5078,0.4277-0.9375c0.1641-0.4258,0.2695-0.7031,0.3164-0.832
	L69.8203,46.6309z"/>
<g>
	<path d="M8.6521,15.9061c-1.0376,0-1.8557,0.6075-2.4543,1.8224c-0.5986,1.215-0.8979,2.9044-0.8979,5.0682
		c0,4.5051,1.175,6.7576,3.5251,6.7576c1.0287,0,2.1062-0.3281,3.2325-0.9844v3.2192c-0.9489,0.6296-2.1639,0.9445-3.6448,0.9445
		c-2.1905,0-3.8732-0.8713-5.0482-2.6139s-1.7626-4.1925-1.7626-7.3496s0.6053-5.618,1.8158-7.3828s2.8933-2.6472,5.0482-2.6472
		c0.7095,0,1.3901,0.0976,2.0419,0.2927c0.6518,0.1951,1.3502,0.5365,2.0951,1.0243l-1.1972,2.9398
		c-0.3991-0.2749-0.8247-0.5254-1.277-0.7516C9.6764,16.0192,9.1842,15.9061,8.6521,15.9061z"/>
	<path d="M14.4786,13.7777c0-0.5853,0.1707-1.0487,0.5121-1.3901c0.3414-0.3414,0.8181-0.5121,1.43-0.5121
		c0.5764,0,1.0376,0.1707,1.3834,0.5121c0.3459,0.3414,0.5188,0.8048,0.5188,1.3901c0,0.603-0.1774,1.0708-0.5321,1.4034
		c-0.3547,0.3326-0.8114,0.4988-1.3701,0.4988c-0.5853,0-1.0553-0.1663-1.4101-0.4988S14.4786,14.3808,14.4786,13.7777z
		 M18.1633,32.4675h-3.5384V17.6487h3.5384V32.4675z"/>
	<path d="M27.5149,17.3694c0.4345,0,0.8602,0.0665,1.277,0.1995l-0.4124,3.432c-0.2483-0.0887-0.572-0.133-0.9711-0.133
		c-0.8602,0-1.5209,0.3392-1.9821,1.0176c-0.4611,0.6784-0.6917,1.665-0.6917,2.9598v7.6223h-3.5384V17.6487h2.9132l0.3991,2.3146
		h0.1197c0.3902-0.9312,0.8159-1.5963,1.277-1.9954S26.903,17.3694,27.5149,17.3694z"/>
	<path d="M35.2701,32.7336c-1.7648,0-3.1083-0.6429-4.0306-1.9288c-0.9223-1.2859-1.3834-3.1748-1.3834-5.6668
		c0-2.6073,0.4368-4.5538,1.3103-5.8397c0.8735-1.2859,2.2237-1.9288,4.0506-1.9288c0.5498,0,1.1263,0.0798,1.7293,0.2394
		c0.603,0.1596,1.144,0.3902,1.6229,0.6917l-1.011,2.7536c-0.7361-0.4345-1.3879-0.6518-1.9554-0.6518
		c-0.7538,0-1.297,0.3924-1.6295,1.1773c-0.3326,0.7848-0.4988,1.9621-0.4988,3.5318c0,1.5342,0.1641,2.6804,0.4922,3.4387
		c0.3281,0.7582,0.8647,1.1374,1.6096,1.1374c0.8868,0,1.8136-0.3104,2.7802-0.9312v3.1128
		C37.4251,32.4454,36.3964,32.7336,35.2701,32.7336z"/>
	<path d="M47.7478,32.4675l-0.705-2.022h-0.0798c-0.5232,0.8691-1.0642,1.4677-1.6229,1.7958
		c-0.5587,0.3281-1.2637,0.4922-2.1151,0.4922c-1.0908,0-1.9488-0.4079-2.574-1.2238c-0.6252-0.8159-0.9378-1.951-0.9378-3.4054
		c0-1.5608,0.4279-2.7203,1.2837-3.4786c0.8558-0.7582,2.135-1.1773,3.8377-1.2571l1.9688-0.0798v-1.0642
		c0-1.3834-0.5986-2.0752-1.7958-2.0752c-0.8868,0-1.9067,0.3459-3.0595,1.0376l-1.2238-2.4476
		c1.4721-0.9312,3.0728-1.3967,4.8022-1.3967c1.5697,0,2.7647,0.4501,3.585,1.3502c0.8203,0.9001,1.2305,2.1749,1.2305,3.8244
		v9.9502H47.7478z M44.6749,29.9667c0.6474,0,1.164-0.2904,1.5497-0.8713s0.5787-1.3546,0.5787-2.3213v-1.2504l-1.0908,0.0532
		c-0.807,0.0443-1.399,0.2749-1.7759,0.6917s-0.5653,1.0376-0.5653,1.8623C43.3713,29.3548,43.8058,29.9667,44.6749,29.9667z"/>
	<path d="M57.0993,32.7336c-1.3657,0-2.4432-0.674-3.2325-2.022c-0.7893-1.348-1.1839-3.2236-1.1839-5.6269
		c0-2.4122,0.3858-4.3011,1.1573-5.6668c0.7715-1.3657,1.8357-2.0486,3.1926-2.0486c0.674,0,1.2571,0.1663,1.7493,0.4988
		s0.9467,0.8935,1.3635,1.6827h0.2128c-0.1064-1.348-0.1596-2.2924-0.1596-2.8334v-4.9485h3.5384v20.6985h-2.6339l-0.5986-1.9288
		H60.385C59.6312,32.0019,58.536,32.7336,57.0993,32.7336z M58.2433,29.7405c0.6562,0,1.1351-0.2993,1.4367-0.8979
		s0.4656-1.6872,0.4922-3.2657v-0.4656c0-1.7204-0.153-2.931-0.4589-3.6315c-0.306-0.7006-0.8092-1.0509-1.5098-1.0509
		c-0.6562,0-1.1329,0.4013-1.43,1.2039c-0.2971,0.8026-0.4456,1.971-0.4456,3.5052c0,1.5342,0.1508,2.6849,0.4523,3.452
		C57.0816,29.357,57.5693,29.7405,58.2433,29.7405z"/>
	<path d="M66.5972,13.7777c0-0.5853,0.1707-1.0487,0.5121-1.3901c0.3414-0.3414,0.8181-0.5121,1.43-0.5121
		c0.5764,0,1.0376,0.1707,1.3834,0.5121c0.3459,0.3414,0.5188,0.8048,0.5188,1.3901c0,0.603-0.1774,1.0708-0.5321,1.4034
		S69.0981,15.68,68.5394,15.68c-0.5853,0-1.0553-0.1663-1.41-0.4988S66.5972,14.3808,66.5972,13.7777z M70.282,32.4675h-3.5384
		V17.6487h3.5384V32.4675z"/>
	<path d="M80.578,32.4675l-0.705-2.022h-0.0798c-0.5232,0.8691-1.0642,1.4677-1.6229,1.7958
		c-0.5587,0.3281-1.2637,0.4922-2.1151,0.4922c-1.0908,0-1.9488-0.4079-2.574-1.2238c-0.6252-0.8159-0.9378-1.951-0.9378-3.4054
		c0-1.5608,0.4279-2.7203,1.2837-3.4786c0.8558-0.7582,2.135-1.1773,3.8377-1.2571l1.9688-0.0798v-1.0642
		c0-1.3834-0.5986-2.0752-1.7958-2.0752c-0.8868,0-1.9067,0.3459-3.0595,1.0376l-1.2238-2.4476
		c1.4721-0.9312,3.0728-1.3967,4.8021-1.3967c1.5697,0,2.7647,0.4501,3.585,1.3502c0.8203,0.9001,1.2305,2.1749,1.2305,3.8244
		v9.9502H80.578z M77.5051,29.9667c0.6474,0,1.164-0.2904,1.5497-0.8713c0.3858-0.5809,0.5787-1.3546,0.5787-2.3213v-1.2504
		l-1.0908,0.0532c-0.807,0.0443-1.399,0.2749-1.7759,0.6917s-0.5654,1.0376-0.5654,1.8623
		C76.2015,29.3548,76.6361,29.9667,77.5051,29.9667z"/>
	<path d="M93.4148,32.4675v-8.8328c0-1.0731-0.1286-1.8845-0.3858-2.4343c-0.2572-0.5498-0.674-0.8247-1.2504-0.8247
		c-0.7627,0-1.3214,0.3791-1.6761,1.1374c-0.3547,0.7582-0.5321,2.0375-0.5321,3.8377v7.1168H86.032V17.6487h2.8068l0.4257,1.9022
		h0.2261c0.3193-0.6829,0.776-1.2172,1.3701-1.6029c0.5942-0.3858,1.2903-0.5787,2.0885-0.5787c1.348,0,2.3567,0.4611,3.0263,1.3834
		c0.6695,0.9223,1.0043,2.2703,1.0043,4.0439v9.6708H93.4148z"/>
	<path d="M100.9794,32.4675V14.5143h1.2526v16.8635h8.2818v1.0897H100.9794z"/>
	<path d="M117.052,32.7945c-1.3613,0-2.3612-0.4085-2.9964-1.226c-0.6363-0.8175-0.9533-2.0796-0.9533-3.7867v-8.391h1.1983v8.2275
		c0,1.399,0.2317,2.4293,0.695,3.0922s1.2216,0.9944,2.2747,0.9944c0.7804,0,1.4888-0.2134,2.1251-0.6402
		c0.6352-0.4268,1.3347-1.1035,2.0973-2.0297v-9.6442h1.1994v13.0768h-1.0088l-0.1352-2.1794h-0.0554
		c-0.6352,0.7627-1.307,1.3713-2.0153,1.8252C118.7691,32.5673,117.9609,32.7945,117.052,32.7945z"/>
	<path d="M125.5799,32.4675l4.4408-6.838l-4.086-6.2388h1.3347l2.1251,3.3239c0.2173,0.363,0.4401,0.7217,0.6673,1.0758
		c0.2261,0.3542,0.4667,0.7128,0.7216,1.0764h0.1086c0.2361-0.3636,0.4589-0.7222,0.6673-1.0764
		c0.2095-0.3542,0.4312-0.7128,0.6685-1.0758l2.043-3.3239h1.2526l-4.0594,6.3474l4.4408,6.7293h-1.3347l-2.3157-3.5689
		c-0.2538-0.4174-0.5088-0.8264-0.7627-1.226c-0.255-0.3991-0.5177-0.7898-0.7904-1.1712h-0.1086
		c-0.255,0.3813-0.5044,0.7721-0.7494,1.1712c-0.245,0.3996-0.4944,0.8087-0.7494,1.226l-2.2337,3.5689H125.5799z"/>
</g>
<text transform="matrix(1 0 0 1 -134.5467 64.479)"><tspan x="0" y="0" style="font-family:'OpenSansCondensed-Bold'; font-size:24px;">Circadian</tspan><tspan x="86.2031" y="0" style="font-family:'SourceSansPro-Light'; font-size:24px;">Lux</tspan></text>
</svg>
