<svg width="30" height="30" viewBox="0 0 30 30" fill="none" xmlns="http://www.w3.org/2000/svg">
<rect width="30" height="30" fill="white"/>
<path d="M30 30H22.5H15H7.5H0V22.5003V15.0005V7.49975V0H7.5H15H22.5H30V7.49975V14.9995V22.4992V30ZM0.252287 29.7477H7.62614H15H22.3739H29.7477V22.3741V15.0005V7.62589V0.252279H22.3739H15H7.62614H0.252287V7.62589V14.9995V22.3731V29.7477Z" fill="#4D4D4D"/>
<path d="M23.626 15.443V15.276V15.109V14.942V14.775C23.571 13.626 23.287 12.531 22.819 11.533C22.352 10.536 21.701 9.63598 20.915 8.88098C20.129 8.12498 19.207 7.51298 18.196 7.08998C17.185 6.66698 16.085 6.43298 14.943 6.43298C13.801 6.43298 12.701 6.66698 11.69 7.09098C10.679 7.51498 9.75701 8.12698 8.97101 8.88298C8.18501 9.63998 7.53501 10.54 7.06701 11.539C6.59901 12.538 6.31501 13.636 6.26001 14.788V14.955V15.122V15.289V15.456C6.31501 16.605 6.59901 17.7 7.06701 18.698C7.53401 19.695 8.18501 20.595 8.97101 21.35C9.75701 22.105 10.679 22.718 11.69 23.141C12.701 23.564 13.801 23.798 14.943 23.798C16.085 23.798 17.185 23.564 18.196 23.14C19.207 22.717 20.129 22.104 20.915 21.348C21.701 20.591 22.351 19.691 22.819 18.692C23.287 17.693 23.571 16.595 23.626 15.443ZM14.943 23.562C13.779 23.562 12.669 23.325 11.659 22.897C10.649 22.469 9.73901 21.85 8.97401 21.085C8.20901 20.32 7.59001 19.41 7.16201 18.4C6.73401 17.39 6.49701 16.28 6.49701 15.116C6.49701 13.952 6.73401 12.842 7.16201 11.832C7.59001 10.822 8.20901 9.91198 8.97401 9.14698C9.73901 8.38198 10.649 7.76298 11.659 7.33498C12.669 6.90698 13.779 6.66998 14.943 6.66998C16.107 6.66998 17.217 6.90698 18.227 7.33498C19.237 7.76298 20.147 8.38198 20.912 9.14698C21.677 9.91198 22.296 10.822 22.724 11.832C23.152 12.842 23.389 13.952 23.389 15.116C23.389 16.28 23.152 17.39 22.724 18.4C22.296 19.41 21.677 20.32 20.912 21.085C20.147 21.85 19.237 22.469 18.227 22.897C17.217 23.325 16.107 23.562 14.943 23.562Z" fill="#4D4D4D"/>
<path d="M14.89 6.62402H14.845H14.8H14.755V10.918V15.212V19.505V23.799H14.8H14.845H14.89H14.935V19.505V15.212V10.918V6.62402H14.89Z" fill="#4D4D4D"/>
<path d="M15.625 6.62402H15.58H15.535H15.49V10.89V15.156V19.422V23.688H15.535H15.58H15.625H15.67V19.422V15.156V10.89V6.62402H15.625Z" fill="#4D4D4D"/>
<path d="M16.415 6.62402H16.37H16.326H16.281V10.859V15.093V19.328V23.562H16.326H16.37H16.415H16.46V19.328V15.093V10.859V6.62402H16.415Z" fill="#4D4D4D"/>
<path d="M17.206 6.81702H17.161H17.116H17.071V10.964V15.11V19.257V23.404H17.116H17.161H17.206H17.25V19.257V15.11V10.964V6.81702H17.206Z" fill="#4D4D4D"/>
<path d="M18.0219 7.10596H17.9769H17.9329H17.8879V11.118V15.131V19.143V23.155H17.9329H17.9769H18.0219H18.0669V19.143V15.131V11.118V7.10596H18.0219Z" fill="#4D4D4D"/>
<path d="M18.812 7.45898H18.768H18.723H18.678V11.303V15.146V18.989V22.832H18.723H18.768H18.812H18.857V18.989V15.146V11.303V7.45898H18.812Z" fill="#4D4D4D"/>
<path d="M19.629 7.95203H19.584H19.539H19.495V11.549V15.146V18.743V22.34H19.539H19.584H19.629H19.674V18.743V15.146V11.549V7.95203H19.629Z" fill="#4D4D4D"/>
<path d="M20.419 8.48901H20.375H20.33H20.285V11.796V15.103V18.409V21.716H20.33H20.375H20.419H20.464V18.409V15.103V11.796V8.48901H20.419Z" fill="#4D4D4D"/>
<path d="M21.21 9.26404H21.165H21.12H21.075V12.192V15.12V18.048V20.975H21.12H21.165H21.21H21.255V18.048V15.12V12.192V9.26404H21.21Z" fill="#4D4D4D"/>
<path d="M22.026 10.241H21.982H21.937H21.892V12.673V15.104V17.536V19.967H21.937H21.982H22.026H22.071V17.536V15.104V12.673V10.241H22.026Z" fill="#4D4D4D"/>
<path d="M22.838 11.658H22.793H22.749H22.704V13.385V15.113V16.84V18.567H22.749H22.793H22.838H22.883V16.84V15.113V13.385V11.658H22.838Z" fill="#4D4D4D"/>
<path d="M14.8 5.306H14.777H14.754H14.733H14.71C14.695 5.306 14.681 5.303 14.668 5.298C14.655 5.293 14.644 5.285 14.634 5.275C14.624 5.265 14.616 5.254 14.611 5.241C14.606 5.228 14.603 5.214 14.603 5.199V4.426V3.653V2.88V2.107C14.603 2.092 14.606 2.078 14.611 2.065C14.616 2.052 14.625 2.041 14.635 2.031C14.645 2.021 14.656 2.013 14.669 2.008C14.682 2.003 14.696 2 14.711 2H14.734H14.757H14.78H14.803C14.818 2 14.832 2.003 14.845 2.008C14.858 2.013 14.866 2.021 14.876 2.031C14.886 2.041 14.894 2.052 14.899 2.065C14.904 2.078 14.907 2.092 14.907 2.107V2.88V3.653V4.426V5.199C14.907 5.214 14.904 5.228 14.899 5.241C14.894 5.254 14.886 5.265 14.876 5.275C14.866 5.285 14.855 5.293 14.842 5.298C14.829 5.303 14.815 5.306 14.8 5.306Z" fill="#4D4D4D"/>
<path d="M7.69604 8.24505L7.68104 8.26005L7.66604 8.27505L7.65104 8.29005L7.63604 8.30505C7.62604 8.31505 7.61504 8.32205 7.60304 8.32705C7.59104 8.33205 7.57804 8.33405 7.56504 8.33405C7.55204 8.33405 7.53904 8.33205 7.52704 8.32705C7.51504 8.32205 7.50404 8.31505 7.49404 8.30505L6.94504 7.75605L6.39604 7.20705L5.84704 6.65805L5.29804 6.10905C5.28804 6.09905 5.28104 6.08805 5.27604 6.07605C5.27104 6.06405 5.26904 6.05105 5.26904 6.03805C5.26904 6.02505 5.27104 6.01205 5.27604 6.00005C5.28104 5.98805 5.28804 5.97705 5.29804 5.96705L5.31304 5.95205L5.32804 5.93705L5.34304 5.92205L5.35804 5.90705C5.36804 5.89705 5.37904 5.89005 5.39104 5.88505C5.40304 5.88005 5.41604 5.87805 5.42904 5.87805C5.44204 5.87805 5.45504 5.88005 5.46704 5.88505C5.47904 5.89005 5.49004 5.89705 5.50004 5.90705L6.04904 6.45605L6.59804 7.00505L7.14704 7.55405L7.69604 8.10305C7.70604 8.11305 7.71304 8.12405 7.71804 8.13605C7.72304 8.14805 7.72504 8.16105 7.72504 8.17405C7.72504 8.18705 7.72304 8.20005 7.71804 8.21205C7.71304 8.22405 7.70604 8.23505 7.69604 8.24505Z" fill="#4D4D4D"/>
<path d="M7.63402 21.954L7.65001 21.97L7.66601 21.986L7.68201 22.002L7.69802 22.018C7.70802 22.028 7.71601 22.041 7.72101 22.053C7.72602 22.066 7.72901 22.08 7.72901 22.093C7.72901 22.107 7.72602 22.12 7.72101 22.133C7.71601 22.146 7.70802 22.158 7.69802 22.168L7.15101 22.715L6.60401 23.262L6.05701 23.809L5.51002 24.356C5.50002 24.366 5.48701 24.374 5.47501 24.379C5.46201 24.384 5.44801 24.387 5.43501 24.387C5.42201 24.387 5.40801 24.384 5.39501 24.379C5.38201 24.374 5.37001 24.366 5.36001 24.356L5.34401 24.34L5.32801 24.324L5.31202 24.308L5.29601 24.292C5.28601 24.282 5.27802 24.269 5.27302 24.257C5.26802 24.245 5.26501 24.23 5.26501 24.217C5.26501 24.203 5.26802 24.19 5.27302 24.177C5.27802 24.164 5.28601 24.152 5.29601 24.142L5.84301 23.595L6.39001 23.048L6.93702 22.501L7.48302 21.954C7.49302 21.944 7.50601 21.936 7.51801 21.931C7.53001 21.926 7.54501 21.923 7.55801 21.923C7.57101 21.923 7.58501 21.926 7.59801 21.931C7.61101 21.936 7.62402 21.944 7.63402 21.954Z" fill="#4D4D4D"/>
<path d="M14.675 24.667H14.696H14.717H14.738H14.759C14.773 24.667 14.786 24.67 14.798 24.675C14.81 24.68 14.821 24.687 14.83 24.697C14.839 24.707 14.847 24.717 14.852 24.729C14.857 24.741 14.86 24.754 14.86 24.768V25.544V26.32V27.096V27.872C14.86 27.886 14.857 27.899 14.852 27.911C14.847 27.923 14.84 27.934 14.83 27.943C14.821 27.952 14.81 27.96 14.798 27.965C14.786 27.97 14.773 27.973 14.759 27.973H14.738H14.717H14.696H14.675C14.661 27.973 14.648 27.97 14.636 27.965C14.624 27.96 14.613 27.952 14.604 27.943C14.595 27.934 14.587 27.923 14.582 27.911C14.577 27.899 14.574 27.886 14.574 27.872V27.096V26.32V25.544V24.768C14.574 24.754 14.577 24.741 14.582 24.729C14.587 24.717 14.594 24.706 14.604 24.697C14.614 24.688 14.624 24.68 14.636 24.675C14.648 24.67 14.661 24.667 14.675 24.667Z" fill="#4D4D4D"/>
<path d="M5.307 15.057V15.078V15.099V15.12V15.141C5.307 15.155 5.304 15.168 5.299 15.18C5.294 15.192 5.287 15.203 5.277 15.212C5.268 15.221 5.257 15.229 5.245 15.234C5.233 15.239 5.22 15.242 5.206 15.242H4.43H3.654H2.878H2.101C2.087 15.242 2.074 15.239 2.062 15.234C2.05 15.229 2.039 15.222 2.03 15.212C2.021 15.203 2.013 15.192 2.008 15.18C2.003 15.168 2 15.155 2 15.141V15.121V15.1V15.079V15.058C2 15.044 2.003 15.031 2.008 15.019C2.013 15.007 2.02 14.996 2.03 14.987C2.039 14.978 2.05 14.97 2.062 14.965C2.074 14.96 2.087 14.957 2.101 14.957H2.877H3.653H4.429H5.205C5.219 14.957 5.232 14.96 5.244 14.965C5.256 14.97 5.267 14.977 5.276 14.987C5.285 14.997 5.293 15.007 5.298 15.019C5.303 15.031 5.307 15.044 5.307 15.057Z" fill="#4D4D4D"/>
<path d="M22.8389 25.6465H22.3792H21.9195H21.4597H21V25.6119V25.5773V25.5434V25.5088L21.3874 24.9248L21.7749 24.3409L22.1623 23.757L22.5497 23.173H22.1802H21.8107H21.44H21.0704V23.1298V23.0865V23.0433V23H21.5024H21.9343H22.3662H22.7981V23.0346V23.0692V23.1026V23.1372L22.4101 23.7211L22.022 24.305L21.634 24.889L21.2459 25.4729H21.6445H22.043H22.4416H22.8402V25.5162V25.5594V25.6027V25.6465H22.8389Z" fill="#4D4D4D"/>
<path d="M25.9335 26H25.627H25.3205H25.014H24.7075V25.9771V25.9543V25.9314V25.9085L24.9658 25.5193L25.2241 25.13L25.4824 24.7407L25.7407 24.3514H25.4935H25.247H25.0004H24.7539V24.3223V24.2933V24.2649V24.2358H25.0418H25.3298H25.6177H25.9057V24.2587V24.2816V24.3044V24.3273L25.6468 24.7166L25.3878 25.1059L25.1289 25.4952L24.87 25.8844H25.1357H25.4014H25.6671H25.9329V25.9135V25.9425V25.9716V26H25.9335Z" fill="#4D4D4D"/>
</svg>
