<svg width="30" height="30" viewBox="0 0 30 30" fill="none" xmlns="http://www.w3.org/2000/svg">
<rect width="30" height="30" fill="white"/>
<path d="M30 30H22.5H15H7.5H0V22.5003V15.0005V7.49975V0H7.5H15H22.5H30V7.49975V14.9995V22.4992V30ZM0.252287 29.7477H7.62614H15H22.3739H29.7477V22.3741V15.0005V7.62589V0.252279H22.3739H15H7.62614H0.252287V7.62589V14.9995V22.3731V29.7477Z" fill="#4D4D4D"/>
<path d="M13.1362 12.2458C13.1362 11.0186 14.1351 10.0197 15.3622 10.0197C16.5894 10.0197 17.5883 11.0186 17.5883 12.2458C17.5883 13.4729 16.5894 14.4719 15.3622 14.4719C14.1351 14.4719 13.1362 13.4729 13.1362 12.2458ZM13.6436 12.2458C13.6436 13.1935 14.4145 13.9644 15.3622 13.9644C16.3099 13.9644 17.0809 13.1935 17.0809 12.2458C17.0809 11.2981 16.3099 10.5272 15.3622 10.5272C14.4145 10.5272 13.6436 11.2981 13.6436 12.2458Z" fill="#4D4D4D" stroke="white" stroke-width="0.15"/>
<path d="M10.8996 7.89949L10.8996 7.89948C12.0762 6.7229 13.6399 6.075 15.3041 6.075C16.9679 6.075 18.532 6.7229 19.7086 7.89948L19.7616 7.84645L19.7086 7.89949C20.7951 8.98583 21.4088 10.5546 21.5152 12.1669C21.6217 13.7793 21.2204 15.4274 20.2871 16.6714L20.287 16.6714L20.2854 16.6737L15.3041 23.8683L10.3152 16.6636L10.3153 16.6635L10.3136 16.6612C9.38408 15.4224 8.98465 13.7768 9.09203 12.1657C9.19942 10.5546 9.81311 8.98584 10.8996 7.89949ZM15.2424 22.8876L15.3041 22.9766L15.3658 22.8876L19.8747 16.376C20.745 15.215 21.1159 13.6889 21.0197 12.2042C20.9235 10.7191 20.3595 9.2677 19.3498 8.25823L19.2968 8.31127L19.3498 8.25822C18.2691 7.17779 16.8322 6.58245 15.3041 6.58245C13.776 6.58245 12.3392 7.17779 11.2587 8.25823C10.2491 9.2677 9.68504 10.7191 9.58789 12.2029C9.49078 13.6862 9.85976 15.2098 10.7262 16.3658L15.2424 22.8876Z" fill="#4D4D4D" stroke="white" stroke-width="0.15"/>
</svg>
