<svg width="30" height="30" viewBox="0 0 30 30" fill="none" xmlns="http://www.w3.org/2000/svg">
<rect width="30" height="30" fill="white"/>
<path d="M30 30H22.5H15H7.5H0V22.5003V15.0005V7.49975V0H7.5H15H22.5H30V7.49975V14.9995V22.4992V30ZM0.252287 29.7477H7.62614H15H22.3739H29.7477V22.3741V15.0005V7.62589V0.252279H22.3739H15H7.62614H0.252287V7.62589V14.9995V22.3731V29.7477Z" fill="#4D4D4D"/>
<path fill-rule="evenodd" clip-rule="evenodd" d="M5.70726 22.3244C5.6887 22.2675 5.63827 22.2306 5.57883 22.2306L4.36392 22.2275L3.98084 21.0925C3.96172 21.0358 3.9117 20.9977 3.8513 21.0001C3.79186 21.0008 3.7417 21.0379 3.72383 21.095L3.36514 22.2275L2.13553 22.2306C2.0761 22.2306 2.02567 22.2675 2.0071 22.3243C1.9884 22.3813 2.00738 22.4411 2.05532 22.4766L3.01752 23.1915L2.64012 24.3931C2.62211 24.4502 2.64151 24.5097 2.68972 24.5449C2.71397 24.5625 2.74168 24.5714 2.76939 24.5714C2.79682 24.5714 2.82411 24.5628 2.8478 24.5456L3.86224 23.8252L4.86656 24.545C4.91436 24.5802 4.97699 24.5801 5.02506 24.5449C5.07328 24.5099 5.09267 24.4504 5.0748 24.3933L4.69684 23.1915L5.65891 22.4767C5.70685 22.4411 5.72583 22.3813 5.70726 22.3244Z" fill="#4D4D4D"/>
<path fill-rule="evenodd" clip-rule="evenodd" d="M11.2787 22.3244C11.2601 22.2675 11.2097 22.2306 11.1502 22.2306L9.93533 22.2275L9.55225 21.0925C9.53313 21.0358 9.48311 20.9977 9.42271 21.0001C9.36327 21.0008 9.31312 21.0379 9.29524 21.095L8.93655 22.2275L7.70695 22.2306C7.64751 22.2306 7.59708 22.2675 7.57851 22.3243C7.55981 22.3813 7.57879 22.4411 7.62673 22.4766L8.58893 23.1915L8.21153 24.3931C8.19352 24.4502 8.21292 24.5097 8.26113 24.5449C8.28538 24.5625 8.31309 24.5714 8.3408 24.5714C8.36823 24.5714 8.39552 24.5628 8.41921 24.5456L9.43365 23.8252L10.438 24.545C10.4858 24.5802 10.5484 24.5801 10.5965 24.5449C10.6447 24.5099 10.6641 24.4504 10.6462 24.3933L10.2683 23.1915L11.2303 22.4767C11.2783 22.4411 11.2972 22.3813 11.2787 22.3244Z" fill="#4D4D4D"/>
<path fill-rule="evenodd" clip-rule="evenodd" d="M16.8501 22.3244C16.8315 22.2675 16.7811 22.2306 16.7217 22.2306L15.5067 22.2275L15.1237 21.0925C15.1045 21.0358 15.0545 20.9977 14.9941 21.0001C14.9347 21.0008 14.8845 21.0379 14.8667 21.095L14.508 22.2275L13.2784 22.2306C13.2189 22.2306 13.1685 22.2675 13.1499 22.3243C13.1312 22.3813 13.1502 22.4411 13.1981 22.4766L14.1603 23.1915L13.7829 24.3931C13.7649 24.4502 13.7843 24.5097 13.8325 24.5449C13.8568 24.5625 13.8845 24.5714 13.9122 24.5714C13.9396 24.5714 13.9669 24.5628 13.9906 24.5456L15.0051 23.8252L16.0094 24.545C16.0572 24.5802 16.1198 24.5801 16.1679 24.5449C16.2161 24.5099 16.2355 24.4504 16.2176 24.3933L15.8397 23.1915L16.8017 22.4767C16.8497 22.4411 16.8687 22.3813 16.8501 22.3244Z" fill="#4D4D4D"/>
<path fill-rule="evenodd" clip-rule="evenodd" d="M22.4215 22.3244C22.4029 22.2675 22.3525 22.2306 22.2931 22.2306L21.0782 22.2275L20.6951 21.0925C20.676 21.0358 20.6259 20.9977 20.5655 21.0001C20.5061 21.0008 20.4559 21.0379 20.4381 21.095L20.0794 22.2275L18.8498 22.2306C18.7903 22.2306 18.7399 22.2675 18.7213 22.3243C18.7026 22.3813 18.7216 22.4411 18.7695 22.4766L19.7318 23.1915L19.3544 24.3931C19.3363 24.4502 19.3557 24.5097 19.404 24.5449C19.4282 24.5625 19.4559 24.5714 19.4836 24.5714C19.5111 24.5714 19.5383 24.5628 19.562 24.5456L20.5765 23.8252L21.5808 24.545C21.6286 24.5802 21.6912 24.5801 21.7393 24.5449C21.7875 24.5099 21.8069 24.4504 21.789 24.3933L21.4111 23.1915L22.3731 22.4767C22.4211 22.4411 22.4401 22.3813 22.4215 22.3244Z" fill="#4D4D4D"/>
<path fill-rule="evenodd" clip-rule="evenodd" d="M27.993 22.3244C27.9745 22.2675 27.924 22.2306 27.8646 22.2306L26.6497 22.2275L26.2666 21.0925C26.2475 21.0358 26.1975 20.9977 26.1371 21.0001C26.0776 21.0008 26.0275 21.0379 26.0096 21.095L25.6509 22.2275L24.4213 22.2306C24.3619 22.2306 24.3114 22.2675 24.2929 22.3243C24.2742 22.3813 24.2931 22.4411 24.3411 22.4766L25.3033 23.1915L24.9259 24.3931C24.9079 24.4502 24.9273 24.5097 24.9755 24.5449C24.9997 24.5625 25.0274 24.5714 25.0552 24.5714C25.0826 24.5714 25.1099 24.5628 25.1336 24.5456L26.148 23.8252L27.1523 24.545C27.2001 24.5802 27.2628 24.5801 27.3108 24.5449C27.359 24.5099 27.3784 24.4504 27.3606 24.3933L26.9826 23.1915L27.9447 22.4767C27.9926 22.4411 28.0116 22.3813 27.993 22.3244Z" fill="#4D4D4D"/>
<path d="M23.5054 12.2114L23.5054 12.2114C23.5392 12.2908 23.5392 12.3805 23.5054 12.46L23.5054 12.46C21.9394 16.1426 18.342 18.522 14.3404 18.522C10.3388 18.522 6.74144 16.1426 5.17536 12.46L5.17535 12.46C5.14155 12.3805 5.14155 12.2908 5.17535 12.2114L5.17536 12.2114C6.74154 8.5291 10.3389 6.15 14.3404 6.15C18.3419 6.15 21.9393 8.52917 23.5054 12.2114ZM5.84141 12.2741L5.8136 12.3357L5.84141 12.3974C7.34819 15.7387 10.6621 17.8867 14.3404 17.8867C18.0186 17.8867 21.3326 15.7386 22.8393 12.3973L22.8671 12.3357L22.8393 12.274C21.3326 8.93306 18.0186 6.78531 14.3404 6.78531C10.6623 6.78531 7.34823 8.93306 5.84141 12.2741Z" fill="#4D4D4D" stroke="white" stroke-width="0.3"/>
<path d="M10.9084 12.3361C10.9084 10.4439 12.4481 8.90415 14.3404 8.90415C16.2326 8.90415 17.7723 10.4438 17.7723 12.3361C17.7723 14.2284 16.2326 15.7681 14.3404 15.7681C12.4481 15.7681 10.9084 14.2284 10.9084 12.3361ZM11.5437 12.3362C11.5437 13.8784 12.7982 15.1329 14.3404 15.1329C15.8826 15.1329 17.1371 13.8784 17.1371 12.3362C17.1371 10.794 15.8826 9.5395 14.3404 9.5395C12.7982 9.5395 11.5437 10.794 11.5437 12.3362Z" fill="#4D4D4D" stroke="white" stroke-width="0.3"/>
<path d="M12.5887 12.336C12.5887 11.3702 13.3747 10.5842 14.3405 10.5842C14.5159 10.5842 14.6581 10.7264 14.6581 10.9018C14.6581 11.0773 14.5159 11.2195 14.3405 11.2195C13.7247 11.2195 13.224 11.7202 13.224 12.336C13.224 12.5114 13.0818 12.6536 12.9064 12.6536C12.7309 12.6536 12.5887 12.5114 12.5887 12.336Z" fill="#4D4D4D" stroke="white" stroke-width="0.3"/>
</svg>
