<svg width="30" height="30" viewBox="0 0 30 30" fill="none" xmlns="http://www.w3.org/2000/svg">
<rect width="30" height="30" fill="white"/>
<path d="M30 30H22.5H15H7.5H0V22.5003V15.0005V7.49975V0H7.5H15H22.5H30V7.49975V14.9995V22.4992V30ZM0.252287 29.7477H7.62614H15H22.3739H29.7477V22.3741V15.0005V7.62589V0.252279H22.3739H15H7.62614H0.252287V7.62589V14.9995V22.3731V29.7477Z" fill="#4D4D4D"/>
<path d="M30 22V21.9421V21.8843V21.8264V21.7685C28.8439 21.3235 27.6602 20.9279 26.4529 20.5844C25.2446 20.241 24.0117 19.9507 22.7583 19.7163C21.5049 19.482 20.2279 19.3027 18.9345 19.1822C17.6401 19.0617 16.3282 19 15 19C13.6718 19 12.3589 19.0617 11.0655 19.1822C9.77111 19.3027 8.49515 19.482 7.24173 19.7163C5.98832 19.9507 4.7554 20.2419 3.54708 20.5844C2.33875 20.9279 1.15605 21.3235 0 21.7685V21.8264V21.8843V21.9421V22C1.15503 21.5522 2.33773 21.1546 3.54605 20.8093C4.75335 20.4639 5.98627 20.1717 7.24071 19.9364C8.49515 19.7011 9.77111 19.5199 11.0655 19.3994C12.3599 19.278 13.6728 19.2163 15.002 19.2163C16.3303 19.2163 17.6431 19.278 18.9376 19.3994C20.232 19.5209 21.5079 19.7011 22.7624 19.9364C24.0168 20.1717 25.2487 20.4649 26.457 20.8093C27.6612 21.1546 28.845 21.5522 30 22Z" fill="#4D4D4D"/>
<path d="M12.2476 11.096C12.2476 11.39 12.2056 11.6607 12.1216 11.908C12.0422 12.1507 11.9209 12.3607 11.7576 12.538C11.5942 12.7107 11.3912 12.846 11.1486 12.944C10.9059 13.042 10.6236 13.091 10.3016 13.091C9.97955 13.091 9.69722 13.042 9.45455 12.944C9.21188 12.846 9.00888 12.7107 8.84555 12.538C8.68222 12.3607 8.55855 12.1507 8.47455 11.908C8.39522 11.6607 8.35555 11.39 8.35555 11.096V8.037H9.25855V11.082C9.25855 11.4367 9.34255 11.7237 9.51055 11.943C9.67855 12.1623 9.94222 12.272 10.3016 12.272C10.6609 12.272 10.9246 12.1623 11.0926 11.943C11.2606 11.7237 11.3446 11.4367 11.3446 11.082V8.037H12.2476V11.096ZM16.452 13L16.347 12.454C16.3097 12.524 16.2537 12.5987 16.179 12.678C16.1044 12.7527 16.011 12.8203 15.899 12.881C15.7917 12.9417 15.6704 12.9907 15.535 13.028C15.3997 13.07 15.255 13.091 15.101 13.091C14.8117 13.091 14.541 13.0513 14.289 12.972C14.0417 12.8927 13.82 12.748 13.624 12.538C13.4934 12.4027 13.386 12.2603 13.302 12.111C13.2227 11.9617 13.1574 11.803 13.106 11.635C13.0594 11.467 13.0267 11.292 13.008 11.11C12.9894 10.9233 12.98 10.7273 12.98 10.522C12.98 10.3213 12.987 10.13 13.001 9.948C13.0197 9.76133 13.0524 9.58633 13.099 9.423C13.1457 9.25967 13.211 9.10333 13.295 8.954C13.379 8.80467 13.4887 8.66233 13.624 8.527C13.8154 8.33567 14.0417 8.191 14.303 8.093C14.569 7.995 14.835 7.946 15.101 7.946C15.409 7.946 15.689 7.99733 15.941 8.1C16.193 8.20267 16.403 8.34033 16.571 8.513C16.6924 8.639 16.795 8.78367 16.879 8.947C16.963 9.10567 17.012 9.29467 17.026 9.514H16.102C16.0927 9.416 16.067 9.332 16.025 9.262C15.983 9.192 15.9364 9.12433 15.885 9.059C15.7124 8.85833 15.4487 8.758 15.094 8.758C14.9494 8.758 14.8024 8.78833 14.653 8.849C14.5037 8.905 14.38 8.98667 14.282 9.094C14.198 9.18267 14.1304 9.28533 14.079 9.402C14.0277 9.51867 13.988 9.64233 13.96 9.773C13.932 9.899 13.9134 10.0273 13.904 10.158C13.8994 10.2887 13.897 10.41 13.897 10.522C13.897 10.634 13.9017 10.7577 13.911 10.893C13.9204 11.0237 13.939 11.1543 13.967 11.285C13.995 11.4157 14.0347 11.5417 14.086 11.663C14.1374 11.7797 14.205 11.8823 14.289 11.971C14.387 12.0783 14.5084 12.1577 14.653 12.209C14.8024 12.2603 14.9494 12.286 15.094 12.286C15.2574 12.286 15.3997 12.2603 15.521 12.209C15.647 12.1577 15.752 12.0877 15.836 11.999C15.9714 11.859 16.0577 11.712 16.095 11.558C16.137 11.3993 16.158 11.2243 16.158 11.033H14.975V10.284H17.033V13H16.452ZM20.8872 13L20.0612 11.124H18.9622V13H18.0522V8.037H20.1452C20.4392 8.037 20.6935 8.08133 20.9082 8.17C21.1275 8.254 21.3072 8.36833 21.4472 8.513C21.5919 8.653 21.6969 8.81633 21.7622 9.003C21.8322 9.185 21.8672 9.37633 21.8672 9.577C21.8672 9.913 21.7832 10.2047 21.6152 10.452C21.4519 10.6947 21.2325 10.8673 20.9572 10.97L21.8672 13H20.8872ZM20.9642 9.577C20.9642 9.479 20.9455 9.38567 20.9082 9.297C20.8709 9.20367 20.8172 9.122 20.7472 9.052C20.6772 8.982 20.5909 8.92833 20.4882 8.891C20.3855 8.849 20.2712 8.828 20.1452 8.828H18.9552V10.312H20.1592C20.4159 10.312 20.6142 10.249 20.7542 10.123C20.8942 9.997 20.9642 9.815 20.9642 9.577Z" fill="#4D4D4D"/>
</svg>
